<?xml version="1.0" encoding="utf-8"?>
<!-- Generator: Adobe Illustrator 19.0.0, SVG Export Plug-In . SVG Version: 6.00 Build 0)  -->
<svg version="1.1" id="Layer_1" xmlns="http://www.w3.org/2000/svg" xmlns:xlink="http://www.w3.org/1999/xlink" x="0px" y="0px"
	 width="256.7px" height="137.8px" viewBox="0 0 256.7 137.8" enable-background="new 0 0 256.7 137.8" xml:space="preserve">
<g>
	<g>
		<g>
			<path fill="#E90C8B" d="M72.2,68.5L79,36.7H67.4c-0.8,0-1.3-0.2-1.3-0.7c0-0.4,0.2-1.2,0.5-1.5c0.2-0.2,0.5-0.3,1.1-0.3h25.9
				c0.8,0,1.3,0.2,1.3,0.7s-0.2,1.2-0.5,1.5c-0.2,0.3-0.5,0.3-1.1,0.3H81.7l-6.8,31.9c-0.2,0.9-0.5,1.3-1.4,1.3h-0.4
				C72.4,69.9,72,69.4,72.2,68.5z"/>
		</g>
		<g>
			<path fill="#E90C8B" d="M91.9,59.8c0-9.2,7-16.6,16.2-16.6c5.7,0,9,2.8,9,6.5c0,4.7-3.2,7.9-15.1,7.9c-2.1,0-4.4-0.1-7.2-0.4
				c-0.1,0.8-0.2,1.6-0.2,2.4c0,4.9,2.9,8.4,8.6,8.4c4.2,0,7.1-1.6,9.1-4.5c0.1-0.1,1.4,0.3,1.4,1.3c0,0.7-0.3,1.2-1.3,2.1
				c-2.2,2.2-5.2,3.3-9.3,3.3C95.8,70.3,91.9,65.9,91.9,59.8z M95.3,55c2.5,0.3,4.6,0.4,6.5,0.4c10.1,0,12.6-2.8,12.6-5.6
				c0-2.1-2.1-4.3-6.5-4.3C102,45.5,97.1,49.6,95.3,55z"/>
		</g>
		<g>
			<path fill="#E90C8B" d="M140.8,64.6v-0.1c-2.4,3.8-6.2,5.8-10.3,5.8c-5.9,0-10.7-4-10.7-11.1c0-8,6-15.9,14.4-15.9
				c5.1,0,8.6,3,9.8,6.4l0.7-3.3c0.4-2,1-2.7,2.1-2.7c0.5,0,1,0.3,1,0.3l-4.4,20.6c-0.6,3,0.4,3.7,2.4,3.7c0.1,0,0.3,1.9-1.8,1.9
				C141.5,70.1,140,68.3,140.8,64.6z M142.2,58.1l1-4.7c-0.9-4.5-3.9-7.8-9.2-7.8c-7,0-11.6,6.9-11.6,13.5c0,5.5,3.7,8.9,8.4,8.9
				C136.5,68,141.2,63.2,142.2,58.1z"/>
		</g>
		<g>
			<path fill="#E90C8B" d="M150.8,58.4c0-7.9,6.3-15.2,14.4-15.2c4.2,0,7,1.5,8.7,3.2c1.5,1.5,2.2,3.4,2.2,4.6c0,1.6-1.9,1.8-2,1.5
				c-0.5-3.8-3.6-7-8.8-7c-6.9,0-11.8,6.3-11.8,12.7c0,5.9,3.9,9.7,9.6,9.7c4.3,0,7.1-2.4,8.8-5.2c0.1-0.1,1.5,0.2,1.5,1.3
				c0,0.7-0.5,1.6-1.7,2.9c-1.8,1.7-4.8,3.4-8.8,3.4C156.2,70.3,150.8,66,150.8,58.4z"/>
		</g>
		<g>
			<path fill="#E90C8B" d="M198,66.5c0-1.4,0.5-3.8,1.3-6.7c0.9-3.3,1.4-5.8,1.4-7.5c0-4.1-2.5-6.6-6.5-6.6c-4.6,0-7.6,2.6-10,6.9
				l-3.4,16.1c-0.2,0.9-0.6,1.3-1.2,1.3h-0.3c-0.7,0-1.3-0.3-1.1-1.3l7.4-34.8c0.2-0.9,0.5-1.3,1.2-1.3h0.3c0.7,0,1.3,0.3,1.1,1.3
				L184.9,49c2.1-3.5,5.5-5.8,9.7-5.8c5.5,0,8.9,3.5,8.9,8.6c0,2-0.7,4.8-1.5,8.3c-0.8,2.9-1.3,4.9-1.3,6c0,1.6,0.9,2.1,2.4,2.2
				c0.1,0,0.2,1.8-1.8,1.8S198,68.8,198,66.5z"/>
		</g>
		<g>
			<path fill="#E90C8B" d="M208.1,59.8c0-9.2,7-16.6,16.2-16.6c5.7,0,9,2.8,9,6.5c0,4.7-3.2,7.9-15.1,7.9c-2.1,0-4.4-0.1-7.2-0.4
				c-0.1,0.8-0.2,1.6-0.2,2.4c0,4.9,2.9,8.4,8.6,8.4c4.2,0,7.1-1.6,9.1-4.5c0.1-0.1,1.4,0.3,1.4,1.3c0,0.7-0.3,1.2-1.3,2.1
				c-2.2,2.2-5.2,3.3-9.3,3.3C212,70.3,208.1,65.9,208.1,59.8z M211.5,55c2.5,0.3,4.6,0.4,6.5,0.4c10.1,0,12.6-2.8,12.6-5.6
				c0-2.1-2.1-4.3-6.5-4.3C218.2,45.5,213.3,49.6,211.5,55z"/>
		</g>
		<g>
			<path fill="#E90C8B" d="M235.2,68.6l5.3-24.8c0-0.1,0.2-0.2,0.5-0.2c1,0,1.9,0.5,1.4,2.9l-0.5,2.7c1.9-4.1,4.4-5.9,7.6-5.9
				c2.1,0,3.8,1,3.8,2.2c0,1.3-1,1.8-1.1,1.7c-0.7-0.8-1.8-1.5-3.5-1.5c-4.3,0-7.2,4.9-8.8,12.6l-2.2,10.4c-0.2,0.9-0.6,1.3-1.2,1.3
				h-0.3C235.6,69.9,235,69.6,235.2,68.6z"/>
		</g>
	</g>
	<g>
		<g>
			<path fill="#E90C8B" d="M48.4,133.2c-4.8,2.9-10.4,4.6-16.5,4.6C13.2,137.8,0,124.6,0,105.7c0-18.8,13.4-32.1,32-32.1
				c18.7,0,31.7,13.2,31.7,32.1c0,7.3-2.3,13.9-6.3,19.3l7.4,7.9c0.4,0.5-2.7,5-7.8,5C54.5,137.8,51.5,136.6,48.4,133.2z M40,123.8
				l-6-6.3c-2.3-2.5-3.1-6.5-0.6-8.7l0.6-0.6c2.8-2.2,6-1,8.5,1.6l5.5,5.9c1.3-2.9,2.1-6.2,2.1-10c0-11.4-7.2-19.8-18-19.8
				c-10.9,0-18,8.3-18,19.8c0,11.4,7.4,19.7,17.9,19.7C34.9,125.4,37.6,124.8,40,123.8z"/>
		</g>
		<g>
			<path fill="#E90C8B" d="M103.9,129.6c-3.2,4.8-8,8.2-15.3,8.2c-12.2,0-17.3-8.6-17.3-19.3V96c0-4.9,2.5-6.5,5.9-6.5h1.4
				c3.5,0,6.1,1.5,6.1,6.5v20.5c0,6.2,3.1,10,8.8,10c4.5,0,8.1-2.5,10-6.1V96c0-4.9,2.5-6.5,6-6.5h1.3c3.6,0,6.1,1.5,6.1,6.5v39.4
				c0,0.5-2.3,1.5-5.1,1.5C108.7,136.9,104.9,135.5,103.9,129.6z"/>
		</g>
		<g>
			<path fill="#E90C8B" d="M124.7,113.6c0-14.2,10.2-24.7,24.3-24.7c13.7,0,23.2,9.6,23.2,23.3v1c-0.1,2.4-0.8,3.7-3.2,3.7h-32.1
				c1,7,6.3,11.1,13.5,11.1c7.1,0,11-3.1,13.2-6.9c0.1-0.2,6.5,0.7,6.5,6c0,5.1-7.2,10.7-20.1,10.7
				C134.7,137.8,124.7,128.3,124.7,113.6z M136.8,109.1h22.9c-0.3-6.5-4.4-10.8-10.9-10.8C142.5,98.3,137.8,102.8,136.8,109.1z"/>
		</g>
		<g>
			<path fill="#E90C8B" d="M176.5,127.5c0-3.4,3.8-5.8,4.1-5.5c3.2,3.4,8.5,6.2,15.4,6.2c5.2,0,8.2-1.5,8.2-4.5
				c0-3.5-3.7-4.1-10-5.4c-6.4-1.4-16.4-3.5-16.4-14.1c0-9.1,7.6-15.1,19.5-15.1c12.6,0,18.9,4.6,18.9,9.9c0,3.5-4.1,6-4.4,5.7
				c-3.1-3.6-8.2-6.2-13.6-6.2c-5.1,0-7.9,1.6-7.9,4.6c0,3.3,3.7,3.8,9.9,5.2c6.6,1.4,17.2,3.6,17.2,14.2c0,9.3-7.7,15.1-20.5,15.1
				C183.1,137.6,176.5,132.8,176.5,127.5z"/>
		</g>
		<g>
			<path fill="#E90C8B" d="M221.4,95.8v-0.9c0-3.2,1.8-5,5.6-5h2.3v-5.9c0-4.4,2.3-6.5,6.1-6.5h1.1c3.6,0,6,1.5,6,6.5V90h8.1
				c3.8,0,5.4,1.6,5.4,4.8v0.8c0,3.2-1.7,5-5.5,5h-8.3v19.8c0,4.6,1.5,6.9,5.2,6.9c2.8,0,4.6-1.3,6-3.1c0.2-0.3,3.2,1.5,3.2,5.2
				c0,4.7-4.7,8.5-12.3,8.5c-10.3,0-15.1-5.4-15.1-15.9v-21.4H227C223.2,100.5,221.4,98.9,221.4,95.8z"/>
		</g>
	</g>
	<g>
		<circle fill="#FFFFFF" cx="45.7" cy="5.3" r="3.8"/>
		<path fill="#1E9AD7" d="M13.4,79.7c0,0.4,2.1,0.9,4.7,1c2.6,0.2,4.7,0,4.8-0.4l0,0l0.2-2.8l0,0c0,0,0-0.1,0-0.1l9-9.5l-1.7,6.3
			c-1.9,0-3.3,0.1-3.3,0.5l0,0l-0.2,2.8l0,0c0,0.4,2.1,0.9,4.7,1c2.6,0.2,4.7,0,4.8-0.4l0.2-2.8c0-0.2-0.6-0.5-1.6-0.7l2.4-9.2
			c0.7-0.1,1.3-0.3,1.8-0.7l9.2,15.4c-0.4,0.1-0.6,0.2-0.6,0.3l-0.2,2.8c0,0.4,2.1,0.9,4.7,1c2.6,0.2,4.7,0,4.8-0.4l0,0l0.2-2.8l0,0
			c0-0.3-1.2-0.6-2.9-0.9c-0.1-0.1-0.2-0.2-0.3-0.4L41.1,60.3l3.3-48c0-0.1,0.1-0.3,0.2-0.4l4.6-4c1.9-1.6,2.1-4.4,0.4-6.3
			c-1.6-1.9-4.4-2.1-6.3-0.4l-4.6,4c-1.7,1.5-3,4.1-3.2,6.4l-3.4,49.1c0,0,0,0.1,0,0.1L17.9,76.4c0,0,0,0,0,0
			c-2.4-0.1-4.3,0-4.3,0.4L13.4,79.7z M43.9,4.7c0.1-1.5,1.5-2.7,3-2.5c1.5,0.1,2.7,1.5,2.5,3c-0.1,1.5-1.5,2.7-3,2.5
			C44.9,7.5,43.8,6.2,43.9,4.7z"/>
	</g>
</g>
</svg>
