<?xml version="1.0" standalone="no"?>
<!DOCTYPE svg PUBLIC "-//W3C//DTD SVG 1.1//EN" "http://www.w3.org/Graphics/SVG/1.1/DTD/svg11.dtd" >
<svg xmlns="http://www.w3.org/2000/svg">
<metadata></metadata>
<defs>
<font id="simsunregular" horiz-adv-x="1024" vert-adv-y="2048" >
<font-face units-per-em="2048" ascent="1760" descent="-288" />
<missing-glyph horiz-adv-x="500" />
<glyph horiz-adv-x="0" vert-adv-y="0" />
<glyph horiz-adv-x="682" />
<glyph unicode=" " vert-adv-y="1024" />
<glyph unicode="!" vert-adv-y="1024" d="M392 120q0 48 32 80t80 32t80 -32t32 -80t-32 -80t-80 -32t-80 32t-32 80zM416 1304q0 64 20 100t68 36q56 0 72 -40t16 -96q0 -104 -28 -324t-28 -436v-80h-64v80q0 216 -28 436t-28 324z" />
<glyph unicode="&#x22;" vert-adv-y="1024" d="M144 1176l216 400q16 32 40 48t48 16q56 0 72 -32t16 -56q0 -16 -8 -36t-24 -36l-328 -328q-8 -8 -20 -4t-12 28zM464 1176l216 400q16 32 40 48t48 16q40 0 64 -32t24 -56q0 -16 -8 -36t-24 -36l-328 -328q-8 -8 -20 -4t-12 28z" />
<glyph unicode="#" vert-adv-y="1024" d="M72 368v152h160l40 416h-200v152h208l24 328h72l-24 -328h368l24 328h72l-24 -328h152v-152h-160l-40 -416h200v-152h-208l-24 -352h-72l24 352h-368l-24 -352h-72l24 352h-152zM304 520h368l40 416h-368z" />
<glyph unicode="$" vert-adv-y="1024" d="M136 320q0 40 28 76t76 36t68 -24t20 -72t-24 -72t-24 -72t60 -80t140 -32v608q-224 168 -264 252t-40 148q0 120 92 212t212 108v144h72v-144q120 0 204 -76t84 -164q0 -72 -28 -104t-76 -32q-40 0 -60 16t-20 56q0 32 24 52t24 76q0 32 -36 76t-116 44v-520 q136 -112 220 -216t84 -224q0 -184 -100 -268t-204 -100v-208h-72v208q-136 0 -240 80t-104 216zM296 1128q0 -64 44 -124t140 -132v480q-72 -16 -128 -68t-56 -156zM552 88q64 0 124 52t60 196q0 80 -44 156t-140 148v-552z" />
<glyph unicode="%" vert-adv-y="1024" d="M24 1048q0 176 64 272t152 96q96 0 156 -100t60 -268q0 -144 -48 -252t-168 -108q-96 0 -156 96t-60 264zM128 1056q0 -200 36 -260t76 -60q56 0 84 72t28 248q0 144 -20 224t-92 80q-48 0 -80 -64t-32 -240zM184 40l568 1376l56 -24l-576 -1376zM544 376q0 176 64 276 t152 100q96 0 156 -104t60 -272q0 -160 -56 -260t-160 -100q-88 0 -152 100t-64 260zM648 384q0 -200 36 -256t76 -56q56 0 84 68t28 244q0 136 -24 224t-88 88q-48 0 -80 -76t-32 -236z" />
<glyph unicode="&#x26;" vert-adv-y="1024" d="M24 376q0 120 52 220t156 180q-24 80 -40 168t-16 168q0 144 72 224t160 80q120 0 168 -72t48 -168q0 -128 -64 -228t-200 -156q56 -152 120 -276t136 -204q40 64 60 156t20 204q0 40 -16 60t-56 20h-40v48h320v-48h-32q-40 0 -64 -24t-32 -72q-24 -136 -52 -240 t-68 -160q56 -72 100 -108t84 -36t68 32t52 96l32 -16q-16 -104 -68 -156t-140 -52q-40 0 -88 32t-112 104q-56 -72 -124 -104t-140 -32q-112 0 -204 104t-92 256zM144 440q0 -176 64 -256t176 -80q48 0 88 20t72 68q-88 104 -164 244t-132 292q-48 -48 -76 -120t-28 -168z M280 1160q0 -80 16 -164t48 -156q88 40 128 132t40 212q0 96 -20 140t-84 44q-40 0 -84 -44t-44 -164z" />
<glyph unicode="'" vert-adv-y="1024" d="M112 1168q80 48 120 100t40 108q0 40 -64 72t-64 96q0 32 28 64t84 32q64 0 100 -52t36 -108q0 -112 -64 -208t-184 -144z" />
<glyph unicode="(" vert-adv-y="1024" d="M440 736q0 248 112 476t336 436l40 -40q-184 -192 -276 -412t-92 -460q0 -248 92 -464t276 -408l-40 -40q-224 200 -336 428t-112 484z" />
<glyph unicode=")" vert-adv-y="1024" d="M88 -136q184 192 276 408t92 464q0 240 -92 460t-276 412l40 40q224 -208 336 -436t112 -476q0 -256 -112 -484t-336 -428z" />
<glyph unicode="*" vert-adv-y="1024" d="M72 520q0 32 24 56t112 56l272 104l-272 104q-56 24 -96 44t-40 68q0 40 24 60t48 20t52 -12t52 -36l248 -224l-56 336q0 24 -4 40t-4 32q0 32 24 60t56 28q48 0 64 -32t16 -56v-36t-8 -36l-64 -336l248 224q32 32 56 40t48 8q32 0 52 -24t20 -56t-16 -52t-120 -60 l-272 -104l272 -104q104 -40 120 -64t16 -48q0 -64 -24 -72t-48 -8t-48 12t-56 36l-248 224l56 -336q8 -24 8 -44v-28q0 -48 -24 -68t-56 -20q-24 0 -52 16t-28 72q0 16 4 32t4 40l64 336l-248 -224q-24 -16 -52 -32t-52 -16t-48 16t-24 64z" />
<glyph unicode="+" vert-adv-y="1024" d="M88 712v72h400v456h72v-456h400v-72h-400v-456h-72v456h-400z" />
<glyph unicode="," vert-adv-y="1024" d="M112 -200q80 48 120 100t40 108q0 40 -64 72t-64 96q0 32 28 64t84 32q64 0 100 -52t36 -108q0 -112 -64 -208t-184 -144z" />
<glyph unicode="-" vert-adv-y="1024" d="M64 712v72h888v-72h-888z" />
<glyph unicode="." vert-adv-y="1024" d="M136 128q0 56 36 88t84 32t84 -36t36 -84q0 -56 -36 -88t-84 -32t-84 32t-36 88z" />
<glyph unicode="/" vert-adv-y="1024" d="M72 -120l816 1712l56 -32l-816 -1712z" />
<glyph unicode="0" vert-adv-y="1024" d="M96 720q0 312 116 504t300 192q176 0 292 -184t116 -512t-116 -516t-292 -188t-296 184t-120 520zM248 720q0 -304 76 -472t188 -168q120 0 188 168t68 472q0 288 -64 460t-192 172q-112 0 -188 -172t-76 -460z" />
<glyph unicode="1" vert-adv-y="1024" d="M232 32v48h72q80 0 116 32t36 96v968q0 32 -20 52t-60 20h-144v48h72q96 0 156 32t92 96h32v-1216q0 -64 40 -96t112 -32h80v-48h-584z" />
<glyph unicode="2" vert-adv-y="1024" d="M104 32v104q40 72 132 184t244 264q136 136 200 256t64 224q0 144 -64 220t-192 76q-96 0 -164 -52t-68 -132q0 -48 28 -80t28 -64q0 -40 -20 -60t-60 -20q-48 0 -76 28t-28 92q0 168 120 256t256 88q192 0 284 -96t92 -240q0 -96 -44 -192t-140 -184 q-232 -224 -356 -364t-148 -188h472q72 0 120 56t64 168h48l-48 -344h-744z" />
<glyph unicode="3" vert-adv-y="1024" d="M120 280q0 48 32 84t64 36q48 0 68 -36t20 -60q0 -40 -16 -68t-16 -52q0 -48 60 -80t132 -32q144 0 216 84t72 260q0 144 -76 232t-284 88v56q160 0 236 76t76 212q0 112 -60 196t-188 84q-56 0 -120 -28t-64 -92t16 -80t16 -40q0 -40 -16 -64t-56 -24q-32 0 -60 24 t-28 88q0 120 104 196t240 76q160 0 256 -100t96 -212q0 -120 -60 -204t-188 -124q176 -64 240 -168t64 -208q0 -152 -112 -268t-312 -116q-144 0 -248 80t-104 184z" />
<glyph unicode="4" vert-adv-y="1024" d="M72 448v40l584 928h80v-920h216v-48h-216v-264q0 -56 32 -80t88 -24h72v-48h-528v48h88q64 0 92 24t28 80v264h-536zM144 496h464v720h-8z" />
<glyph unicode="5" vert-adv-y="1024" d="M120 304q0 48 28 84t76 36t64 -32t16 -56q0 -48 -24 -76t-24 -60q0 -64 76 -96t164 -32q128 0 196 104t68 296q0 160 -60 260t-180 100q-88 0 -152 -32t-120 -136l-72 8l40 728h656l-24 -120h-576l-32 -528q80 112 156 136t156 24q152 0 248 -116t96 -308 q0 -216 -100 -344t-308 -128q-144 0 -256 84t-112 204z" />
<glyph unicode="6" vert-adv-y="1024" d="M96 656q0 368 136 564t368 196q112 0 180 -64t68 -112t-20 -72t-68 -24q-40 0 -60 20t-20 60q0 16 4 32t4 32q0 32 -24 52t-88 20q-136 0 -232 -124t-96 -540q48 104 132 156t180 52q192 0 276 -128t84 -288q0 -240 -116 -356t-268 -116q-216 0 -328 164t-112 476z M248 576q0 -240 84 -372t204 -132t184 88t64 328q0 160 -68 248t-164 88q-88 0 -164 -52t-140 -196z" />
<glyph unicode="7" vert-adv-y="1024" d="M128 1064l56 336h720v-56q-168 -272 -268 -532t-100 -452q0 -32 4 -92t4 -140q0 -64 -20 -88t-68 -24q-40 0 -68 28t-28 100q0 152 68 376t364 760h-400q-88 0 -140 -56t-76 -168z" />
<glyph unicode="8" vert-adv-y="1024" d="M88 360q0 136 68 232t196 168q-112 56 -172 140t-60 188q0 136 104 232t288 96q168 0 272 -96t104 -232q0 -96 -60 -180t-188 -148q136 -80 200 -176t64 -208q0 -152 -112 -256t-296 -104q-168 0 -288 104t-120 240zM200 360q0 -128 84 -208t212 -80q152 0 220 80t68 200 q0 104 -96 200t-288 176q-96 -64 -148 -160t-52 -208zM232 1112q0 -88 92 -172t260 -148q96 48 144 120t48 168q0 112 -64 196t-200 84q-152 0 -216 -80t-64 -168z" />
<glyph unicode="9" vert-adv-y="1024" d="M88 968q0 192 104 320t296 128q200 0 312 -160t112 -464q0 -336 -132 -556t-364 -220q-104 0 -180 48t-76 128q0 32 20 64t68 32t64 -36t16 -84q0 -32 8 -52t16 -28t28 -12t44 -4q144 0 232 160t104 536q-40 -96 -120 -160t-200 -64q-160 0 -256 100t-96 324zM224 976 q0 -176 68 -268t172 -92q120 0 208 112t88 208q0 192 -64 308t-208 116q-136 0 -200 -108t-64 -276z" />
<glyph unicode=":" vert-adv-y="1024" d="M384 120q0 48 32 80t80 32t80 -32t32 -80t-32 -80t-80 -32t-80 32t-32 80zM384 872q0 48 32 80t80 32t80 -32t32 -80t-32 -80t-80 -32t-80 32t-32 80z" />
<glyph unicode=";" vert-adv-y="1024" d="M408 32v176h184v-176l-104 -216h-80l80 216h-80zM408 768v176h184v-176h-184z" />
<glyph unicode="&#x3c;" vert-adv-y="1024" d="M128 736l712 712l48 -48l-664 -664l664 -664l-48 -48z" />
<glyph unicode="=" vert-adv-y="1024" d="M64 496v72h888v-72h-888zM64 904v72h888v-72h-888z" />
<glyph unicode="&#x3e;" vert-adv-y="1024" d="M136 72l664 664l-664 664l48 48l712 -712l-712 -712z" />
<glyph unicode="?" vert-adv-y="1024" d="M104 1064q0 144 120 260t296 116t288 -104t112 -272q0 -88 -32 -164t-144 -140q-120 -72 -172 -116t-52 -132v-144h-64v160q0 88 28 140t100 100q120 80 156 144t36 160q0 152 -68 224t-204 72q-144 0 -224 -76t-80 -148q0 -24 12 -36t36 -28q32 -16 44 -40t12 -56 q0 -40 -24 -56t-64 -16q-48 0 -80 32t-32 120zM384 120q0 48 32 80t80 32t80 -32t32 -80t-32 -80t-80 -32t-80 32t-32 80z" />
<glyph unicode="@" vert-adv-y="1024" d="M80 704q0 328 144 520t344 192q168 0 288 -136t120 -440q0 -240 -80 -372t-176 -132q-40 0 -68 32t-36 104q-32 -72 -76 -104t-100 -32q-48 0 -92 64t-44 192q0 176 96 372t216 196q32 0 52 -16t28 -48l16 72h88l-72 -504q-8 -64 -16 -112t-8 -72q0 -32 12 -48t28 -16 q64 0 112 112t48 304q0 320 -108 424t-228 104q-144 0 -260 -148t-116 -508q0 -312 96 -468t256 -156q120 0 212 64t156 192l56 -16q-80 -160 -184 -232t-240 -72q-208 0 -336 196t-128 492zM408 536q0 -72 16 -104t48 -32q48 0 88 56t64 168l56 392q8 48 -12 72t-52 24 q-56 0 -132 -164t-76 -412z" />
<glyph unicode="A" vert-adv-y="1024" d="M16 32v48h24q32 0 56 20t32 68l312 1224l120 40l304 -1264q16 -48 40 -68t56 -20h24v-48h-344v48h32q48 0 60 28q5 12 5 29q0 23 -9 55l-80 352h-360l-72 -304q-8 -36 -8 -65t8 -51q16 -44 72 -44h24v-48h-296zM304 592h336l-160 664h-8z" />
<glyph unicode="B" vert-adv-y="1024" d="M32 32v48h64q40 0 56 16t16 48v1144q0 32 -16 48t-56 16h-48v48h464q192 0 284 -76t92 -236q0 -112 -48 -184t-200 -128q184 -56 248 -160t64 -232q0 -160 -112 -256t-304 -96h-504zM296 144q0 -32 20 -48t52 -16h144q136 0 212 84t76 236q0 176 -80 260t-240 84h-184 v-600zM296 792h208q88 0 168 72t80 224q0 144 -80 204t-208 60h-96q-32 0 -52 -16t-20 -48v-496z" />
<glyph unicode="C" vert-adv-y="1024" d="M64 712q0 304 140 504t380 200q56 0 112 -20t96 -20q32 0 52 8t36 32l72 -352l-48 -16q-48 152 -128 232t-208 80q-168 0 -260 -184t-92 -456q0 -296 80 -464t264 -168q128 0 220 92t124 244l48 -24q-40 -168 -148 -276t-252 -108q-224 0 -356 168t-132 528z" />
<glyph unicode="D" vert-adv-y="1024" d="M40 32v48h56q40 0 56 16t16 48v1144q0 32 -16 48t-56 16h-48v48h360q248 0 396 -160t148 -496q0 -368 -144 -540t-424 -172h-344zM296 144q0 -32 24 -48t64 -16q176 0 296 132t120 516q0 344 -104 484t-288 140q-56 0 -84 -16t-28 -48v-1144z" />
<glyph unicode="E" vert-adv-y="1024" d="M56 32v48h48q40 0 56 16t16 48v1144q0 32 -16 48t-56 16h-40v48h784l88 -272l-40 -16q-64 120 -136 180t-160 60h-224q-32 0 -52 -16t-20 -48v-496h232q80 0 116 40t36 120v48h48v-472h-48v32q0 88 -36 136t-116 48h-232v-600q0 -32 20 -48t52 -16h208q120 0 204 68 t132 212l40 -16l-88 -312h-816z" />
<glyph unicode="F" vert-adv-y="1024" d="M48 32v48h56q40 0 56 16t16 48v1144q0 32 -16 48t-56 16h-48v48h832l96 -288l-40 -16q-64 128 -152 192t-192 64h-224q-32 0 -52 -16t-20 -48v-512h264q80 0 116 36t36 116v40h48v-464h-48v32q0 96 -36 144t-116 48h-264v-584q0 -32 20 -48t52 -16h56v-48h-384z" />
<glyph unicode="G" vert-adv-y="1024" d="M56 696q0 296 132 508t332 212q48 0 112 -24t80 -24q24 0 48 12t40 36l64 -360l-48 -16q-48 168 -120 244t-176 76q-120 0 -220 -164t-100 -500q0 -224 76 -424t252 -200q88 0 140 36t60 108v272q0 48 -24 72t-72 24h-48v48h400v-48h-40q-40 0 -64 -24t-24 -64v-400 q-16 8 -28 12t-28 4t-32 -4t-32 -20q-48 -40 -100 -56t-116 -16q-240 0 -352 212t-112 468z" />
<glyph unicode="H" vert-adv-y="1024" d="M32 32v48h40q40 0 56 16t16 48v1144q0 32 -16 48t-56 16h-32v48h336v-48h-32q-32 0 -52 -16t-20 -48v-512h472v512q0 32 -16 48t-56 16h-32v48h336v-48h-32q-32 0 -52 -16t-20 -48v-1144q0 -32 20 -48t52 -16h40v-48h-352v48h40q40 0 56 16t16 48v584h-472v-584 q0 -32 20 -48t52 -16h40v-48h-352z" />
<glyph unicode="I" vert-adv-y="1024" d="M192 32v48h184q40 0 56 16t16 48v1144q0 32 -16 48t-56 16h-184v48h640v-48h-184q-32 0 -52 -16t-20 -48v-1144q0 -32 20 -48t52 -16h184v-48h-640z" />
<glyph unicode="J" vert-adv-y="1024" d="M72 -64q0 48 28 72t60 24q40 0 64 -28t24 -68q0 -16 -4 -28t-20 -28q16 -24 48 -36t80 -12q104 0 168 68t64 252v1136q0 32 -16 48t-56 16h-192v48h656v-48h-192q-32 0 -52 -16t-20 -48v-1136q0 -176 -112 -276t-280 -100q-120 0 -184 48t-64 112z" />
<glyph unicode="K" vert-adv-y="1024" d="M48 32v48h48q40 0 56 16t16 48v1144q0 32 -16 48t-56 16h-48v48h368v-48h-48q-32 0 -52 -16t-20 -48v-584l376 536q29 40 29 66q0 10 -5 18q-16 28 -72 28h-32v48h344v-48h-16q-40 0 -80 -24t-80 -72l-256 -352l344 -736q24 -48 52 -68t44 -20h40v-48h-344v48h24 q48 0 56 32q2 6 2 14q0 29 -26 74l-272 584l-128 -184v-456q0 -32 20 -48t52 -16h48v-48h-368z" />
<glyph unicode="L" vert-adv-y="1024" d="M64 32v48h56q40 0 56 16t16 48v1144q0 32 -16 48t-56 16h-48v48h376v-48h-56q-32 0 -52 -16t-20 -48v-1144q0 -32 20 -48t52 -16h216q112 0 192 68t120 212l40 -16l-72 -312h-824z" />
<glyph unicode="M" vert-adv-y="1024" d="M16 1352v48h232l232 -1072h16l248 1072h256v-48h-32q-32 0 -52 -16t-20 -48v-1144q0 -32 20 -48t52 -16h32v-48h-344v48h40q40 0 56 16t16 48v1048h-16l-272 -1160h-48l-248 1136h-16v-1024q0 -32 20 -48t52 -16h24v-48h-240v48h24q40 0 56 16t16 48v1144q0 32 -16 48 t-56 16h-32z" />
<glyph unicode="N" vert-adv-y="1024" d="M16 32v48h64q40 0 56 16t16 48v1144q0 32 -16 48t-56 16h-48v48h232l544 -1048h16v936q0 32 -16 48t-56 16h-64v48h320v-48h-64q-32 0 -52 -16t-20 -48v-1256h-48l-608 1192h-16v-1080q0 -32 20 -48t52 -16h64v-48h-320z" />
<glyph unicode="O" vert-adv-y="1024" d="M72 720q0 312 124 504t324 192q208 0 328 -204t120 -492q0 -328 -128 -516t-320 -188q-184 0 -316 192t-132 512zM224 720q0 -344 84 -500t212 -156q136 0 216 148t80 508q0 288 -68 464t-228 176q-136 0 -216 -160t-80 -480z" />
<glyph unicode="P" vert-adv-y="1024" d="M48 32v48h56q40 0 56 16t16 48v1144q0 32 -16 48t-56 16h-48v48h472q200 0 308 -100t108 -252q0 -184 -116 -280t-276 -96h-248v-528q0 -32 20 -48t52 -16h56v-48h-384zM304 720h200q120 0 212 72t92 248q0 160 -76 236t-244 76h-112q-32 0 -52 -16t-20 -48v-568z" />
<glyph unicode="Q" vert-adv-y="1024" d="M64 720q0 320 120 508t328 188q192 0 320 -180t128 -516q0 -280 -68 -424t-164 -216q16 -56 40 -80t48 -24q32 0 56 16t32 56l32 -16q-24 -96 -64 -140t-96 -44q-40 0 -76 24t-92 160q-8 -8 -32 -8h-64q-176 0 -312 160t-136 536zM216 720q0 -160 12 -268t36 -156 q32 72 72 108t120 36q96 0 148 -68t92 -204q56 40 84 180t28 372q0 312 -68 476t-228 164q-136 0 -216 -160t-80 -480zM320 224q0 -56 56 -100t136 -44h52t28 8q-24 120 -56 196t-96 76q-32 0 -76 -32t-44 -104z" />
<glyph unicode="R" vert-adv-y="1024" d="M64 32v48h48q40 0 56 16t16 48v1144q0 32 -16 48t-56 16h-48v48h456q184 0 284 -80t100 -240t-88 -248t-200 -104l240 -592q16 -32 36 -44t44 -12h48v-48h-224l-264 688h-184v-576q0 -32 20 -48t52 -16h48v-48h-368zM312 768h176q120 0 200 72t80 224q0 136 -72 212 t-224 76h-88q-32 0 -52 -16t-20 -48v-520z" />
<glyph unicode="S" vert-adv-y="1024" d="M88 408l48 16q56 -200 156 -276t228 -76q136 0 204 80t68 232q0 80 -76 156t-236 148q-216 96 -296 168t-80 224q0 120 100 228t284 108q80 0 152 -28t104 -28q24 0 44 12t36 44l32 -328l-40 -16q-72 168 -148 228t-196 60q-152 0 -208 -84t-56 -180q0 -88 52 -140 t284 -156q192 -80 276 -180t84 -236q0 -144 -100 -256t-292 -112q-80 0 -148 28t-108 28q-24 0 -48 -16t-56 -40z" />
<glyph unicode="T" vert-adv-y="1024" d="M56 1096l72 304h760l64 -304l-40 -8q-64 168 -100 212t-148 44q-80 0 -88 -8t-8 -80v-1112q0 -32 20 -48t52 -16h72v-48h-416v48h72q40 0 56 16t16 48v1120q0 64 -8 72t-64 8q-112 0 -156 -40t-108 -216z" />
<glyph unicode="U" vert-adv-y="1024" d="M32 1352v48h352v-48h-40q-32 0 -52 -16t-20 -48v-936q0 -160 68 -216t180 -56q120 0 204 80t84 200v928q0 32 -16 48t-56 16h-48v48h288v-48h-48q-32 0 -52 -16t-20 -48v-928q0 -160 -108 -252t-244 -92q-144 0 -252 80t-108 256v936q0 32 -16 48t-56 16h-40z" />
<glyph unicode="V" vert-adv-y="1024" d="M32 1352v48h344v-48h-32q-40 0 -52 -24q-7 -14 -7 -35q0 -13 3 -29l224 -936h16l240 912q8 28 8 49t-8 35q-16 28 -64 28h-24v48h288v-48h-32q-32 0 -60 -24t-44 -88l-328 -1208h-48l-296 1208q-8 56 -28 84t-60 28h-40z" />
<glyph unicode="W" vert-adv-y="1024" d="M16 1352v48h280v-48h-24q-32 0 -48 -16t-16 -48l128 -880h16l136 664l-24 216q0 32 -20 48t-36 16h-24v48h272v-48h-24q-32 0 -44 -16t-12 -48l120 -856h16l144 840q8 40 -12 60t-52 20h-24v48h240v-48h-32q-16 0 -36 -16t-28 -56l-216 -1248h-48l-128 848h-16l-168 -848 h-48l-192 1256q0 32 -12 48t-36 16h-32z" />
<glyph unicode="X" vert-adv-y="1024" d="M56 32v48h32q40 0 72 24t48 56l256 544l-272 592q-8 24 -28 40t-52 16h-32v48h328v-48h-24q-48 0 -56 -24q-3 -8 -3 -19q0 -21 11 -53l192 -424l192 408q18 42 18 68q0 9 -2 16q-8 28 -56 28h-48v48h312v-48h-48q-16 0 -40 -16t-48 -48l-248 -520l280 -600q24 -48 52 -68 t60 -20h24v-48h-344v48h32q40 0 52 20t-4 52l-216 472l-184 -384q-16 -40 -28 -68t-12 -36q0 -32 20 -44t52 -12h16v-48h-304z" />
<glyph unicode="Y" vert-adv-y="1024" d="M48 1352v48h352v-48h-48q-48 0 -56 -24q-3 -8 -3 -19q0 -21 11 -53l216 -592h16l224 592q2 14 2 25q0 30 -14 47q-20 24 -76 24h-16v48h312v-48h-24q-40 0 -72 -28t-56 -84l-248 -632v-464q0 -32 20 -48t52 -16h72v-48h-416v48h72q40 0 56 16t16 48v416l-272 704 q-16 40 -40 64t-64 24h-16z" />
<glyph unicode="Z" vert-adv-y="1024" d="M72 32l704 1320h-280q-104 0 -188 -60t-148 -180l-48 16l96 272h728l-704 -1320h344q104 0 180 68t124 204l48 -8l-88 -312h-768z" />
<glyph unicode="[" vert-adv-y="1024" d="M400 -152v1776h480v-72h-400v-1632h400v-72h-480z" />
<glyph unicode="\" vert-adv-y="1024" d="M152 1488h96l680 -1704h-96z" />
<glyph unicode="]" vert-adv-y="1024" d="M136 -80h400v1632h-400v72h480v-1776h-480v72z" />
<glyph unicode="^" vert-adv-y="1024" d="M240 1440l176 216h192l168 -216l-16 -16l-248 160l-256 -160z" />
<glyph unicode="_" vert-adv-y="1024" d="M0 -232h1016v-48h-1016v48z" />
<glyph unicode="`" vert-adv-y="1024" d="M168 1632l16 24h216l176 -176l-8 -32z" />
<glyph unicode="a" vert-adv-y="1024" d="M88 248q0 144 124 236t492 132v96q0 80 -36 132t-164 52q-136 0 -192 -44q-44 -34 -44 -71q0 -10 4 -21q8 -16 8 -32t-8 -32q-16 -32 -64 -32q-32 0 -52 20t-20 60q0 72 104 136t256 64q160 0 240 -60t80 -172v-528q0 -64 12 -76t44 -12q40 0 56 36t16 100h40 q0 -112 -40 -156t-104 -44q-56 0 -88 24t-48 80q-80 -56 -148 -84t-164 -28q-144 0 -224 68t-80 156zM224 272q0 -72 44 -132t140 -60q72 0 144 28t152 84v376q-272 -32 -376 -108t-104 -188z" />
<glyph unicode="b" vert-adv-y="1024" d="M48 1352v48h72q40 0 80 16t80 48v-720q40 88 128 140t168 52q168 0 252 -116t84 -340t-108 -340t-268 -116q-80 0 -148 28t-116 76l-72 -96h-32v1256q0 32 -16 48t-56 16h-48zM280 296q0 -88 60 -152t180 -64q144 0 204 100t60 300q0 192 -52 292t-164 100 q-96 0 -168 -56t-120 -200v-320z" />
<glyph unicode="c" vert-adv-y="1024" d="M120 480q0 200 120 332t312 132q136 0 212 -72t76 -144q0 -48 -20 -68t-60 -20q-32 0 -52 20t-20 52q0 24 4 32t12 32q1 5 1 11q0 28 -33 65q-40 44 -136 44q-120 0 -204 -116t-84 -308q0 -176 72 -284t240 -108q112 0 188 72t108 168l40 -16q-32 -120 -120 -204 t-240 -84q-192 0 -304 120t-112 344z" />
<glyph unicode="d" vert-adv-y="1024" d="M120 480q0 208 112 332t264 124q64 0 132 -28t108 -84v432q0 48 -16 72t-56 24h-64v48h88q40 0 80 16t80 48v-1264q0 -40 16 -56t48 -16h56v-48h-48q-32 0 -76 -12t-92 -36h-16v152q-40 -72 -108 -116t-156 -44q-144 0 -248 116t-104 340zM248 464q0 -192 64 -284 t184 -92q88 0 148 56t92 168v440q-40 64 -104 92t-128 28q-120 0 -188 -112t-68 -296z" />
<glyph unicode="e" vert-adv-y="1024" d="M128 480q0 200 116 332t284 132q152 0 264 -104t112 -360h-648q0 -216 84 -308t220 -92q104 0 176 60t104 148l40 -16q-24 -88 -108 -172t-228 -84q-184 0 -300 120t-116 344zM256 528h512q1 19 1 36q0 150 -61 232q-68 92 -180 92q-120 0 -196 -96t-76 -264z" />
<glyph unicode="f" vert-adv-y="1024" d="M112 880v48h248v136q0 168 104 252t232 84q136 0 204 -48t68 -112q0 -32 -16 -56t-64 -24q-32 0 -52 16t-20 56q0 8 4 24t4 24q0 32 -24 52t-112 20q-96 0 -156 -60t-60 -204v-160h336v-48h-336v-736q0 -32 20 -48t52 -16h192v-48h-584v48h136q40 0 56 16t16 48v736h-248 z" />
<glyph unicode="g" vert-adv-y="1024" d="M112 -48q0 56 40 112t128 88q-48 24 -76 52t-28 68q0 48 32 84t80 60q-48 40 -84 96t-36 120q0 120 84 212t236 92q64 0 124 -16t100 -56q56 40 100 60t76 20q40 0 56 -28t16 -52q0 -32 -12 -52t-44 -20q-24 0 -40 12t-24 36t-36 20t-60 -28q32 -32 48 -88t16 -112 q0 -96 -76 -188t-244 -92q-48 0 -88 12t-64 28q-32 -16 -48 -40t-16 -40q0 -32 16 -48t48 -16q104 -16 188 -28t148 -20q120 -16 176 -68t56 -140q0 -120 -100 -192t-316 -72q-168 0 -272 68t-104 156zM216 -48q0 -64 72 -120t216 -56q136 0 216 44t80 132q0 56 -20 88 t-60 40q-80 16 -176 28t-200 28q-72 -32 -100 -76t-28 -108zM280 632q0 -96 56 -164t152 -68q104 0 156 60t52 172q0 136 -60 196t-148 60t-148 -60t-60 -196z" />
<glyph unicode="h" vert-adv-y="1024" d="M56 1352v48h88q32 0 64 16t64 48h16v-680q72 88 148 124t164 36q120 0 184 -68t64 -212v-520q0 -32 20 -48t52 -16h40v-48h-336v48h40q40 0 56 16t16 48v504q0 136 -44 180t-116 44q-64 0 -140 -40t-148 -136v-552q0 -32 20 -48t52 -16h40v-48h-336v48h40q40 0 56 16 t16 48v1144q0 32 -16 48t-56 16h-48z" />
<glyph unicode="i" vert-adv-y="1024" d="M216 32v48h168q40 0 56 16t16 48v664q0 32 -16 52t-56 20h-168v48h80q72 0 136 12t120 44h16v-840q0 -32 20 -48t52 -16h168v-48h-592zM416 1320q0 40 32 68t72 28t72 -28t32 -68t-32 -72t-72 -32t-72 32t-32 72z" />
<glyph unicode="j" vert-adv-y="1024" d="M160 -128q0 32 20 52t60 20t52 -24t20 -48q16 -48 40 -60t80 -12q128 0 188 68t60 212v728q0 32 -16 52t-56 20h-160v48h72q72 0 136 12t120 44h16v-872q0 -184 -112 -280t-272 -96q-128 0 -188 40t-60 96zM624 1320q0 40 32 68t72 28q48 0 76 -28t28 -68t-28 -72 t-76 -32q-40 0 -72 32t-32 72z" />
<glyph unicode="k" vert-adv-y="1024" d="M64 1352v48h72q48 0 84 16t60 48h16v-1016l336 360q16 32 12 52t-36 20h-48v48h336v-48h-40q-24 0 -60 -12t-68 -44l-192 -216l304 -472q24 -32 44 -44t44 -12h32v-48h-328v48h24q40 0 56 12t-8 44l-248 392l-160 -168v-216q0 -32 20 -48t52 -16h40v-48h-336v48h40 q40 0 56 16t16 48v1144q0 32 -16 48t-56 16h-48z" />
<glyph unicode="l" vert-adv-y="1024" d="M200 32v48h184q40 0 56 16t16 48v1144q0 32 -16 48t-56 16h-176v48h88q72 0 136 16t120 48h16v-1320q0 -32 20 -48t52 -16h184v-48h-624z" />
<glyph unicode="m" vert-adv-y="1024" d="M24 32v48h16q32 0 48 12t16 44v696q0 24 -8 36t-32 12h-32v48h24q40 0 80 8t64 24h16v-136q40 64 88 92t104 28q72 0 112 -28t48 -92q40 64 92 92t108 28q96 0 132 -56t36 -144v-608q0 -32 16 -44t48 -12h16v-48h-272v48h16q32 0 48 12t16 44v600q0 88 -20 116t-60 28 q-56 0 -100 -40t-68 -112v-592q0 -32 16 -44t48 -12h16v-48h-272v48h16q32 0 48 12t16 44v600q0 72 -16 108t-64 36q-56 0 -100 -40t-68 -120v-584q0 -32 16 -44t48 -12h16v-48h-272z" />
<glyph unicode="n" vert-adv-y="1024" d="M64 32v48h40q40 0 56 16t16 48v688q0 24 -8 36t-32 12h-64v48h56q40 0 76 8t68 32h16v-184q72 80 144 120t152 40q136 0 200 -72t64 -216v-512q0 -32 20 -48t52 -16h40v-48h-336v48h40q40 0 56 16t16 48v536q0 96 -40 148t-120 52q-72 0 -148 -48t-140 -136v-552 q0 -32 20 -48t52 -16h40v-48h-336z" />
<glyph unicode="o" vert-adv-y="1024" d="M96 480q0 176 116 320t300 144q192 0 304 -144t112 -320q0 -200 -120 -332t-296 -132q-184 0 -300 136t-116 328zM224 472q0 -208 84 -308t204 -100q136 0 212 108t76 300q0 208 -84 316t-204 108q-112 0 -200 -108t-88 -316z" />
<glyph unicode="p" vert-adv-y="1024" d="M56 -216h48q40 0 56 16t16 56v944q0 32 -16 52t-56 20h-48v48h72q40 0 76 8t68 32h16v-184q56 80 124 120t148 40q160 0 264 -108t104 -340q0 -224 -112 -344t-264 -120q-88 0 -148 28t-116 84v-280q0 -40 24 -56t56 -16h56v-48h-368v48zM288 240q40 -80 100 -120 t140 -40q112 0 192 100t80 308q0 192 -60 288t-180 96q-72 0 -144 -44t-128 -140v-448z" />
<glyph unicode="q" vert-adv-y="1024" d="M104 480q0 216 120 336t256 120q88 0 148 -32t108 -80l72 104h32v-1072q0 -40 20 -56t52 -16h48v-48h-368v48h64q40 0 56 16t16 56v296q-48 -64 -116 -96t-164 -32q-136 0 -240 116t-104 340zM232 456q0 -200 68 -284t172 -84q88 0 156 40t100 136v456q-32 72 -88 116 t-136 44q-112 0 -192 -96t-80 -328z" />
<glyph unicode="r" vert-adv-y="1024" d="M64 32v48h160q40 0 56 16t16 48v664q0 32 -16 52t-56 20h-152v48h64q56 0 132 12t116 28h24v-288q80 128 172 196t188 68q80 0 124 -36t44 -84q0 -40 -20 -64t-60 -24t-60 24q-14 17 -14 42q0 10 2 22q0 24 -8 40t-48 16q-64 0 -156 -80t-164 -224v-432q0 -32 20 -48 t52 -16h176v-48h-592z" />
<glyph unicode="s" vert-adv-y="1024" d="M168 320l48 8q24 -128 104 -192t224 -64q112 0 172 40t60 120q0 56 -32 92t-64 52q-80 32 -176 68t-168 68t-104 80t-32 104q0 120 92 184t220 64q72 0 136 -20t88 -20t40 8t40 32l32 -264l-48 -8q-32 104 -108 164t-172 60q-104 0 -164 -40t-60 -112q0 -64 28 -100 t100 -52q56 -24 140 -52t156 -60q64 -32 108 -84t44 -116q0 -120 -84 -188t-244 -68q-104 0 -156 20t-84 20q-24 0 -52 -12t-60 -28z" />
<glyph unicode="t" vert-adv-y="1024" d="M128 880v48h64q96 0 156 60t76 188l8 64h48v-312h320v-48h-320v-592q0 -112 40 -152t120 -40t128 52t64 148l40 -16q-16 -112 -84 -184t-180 -72q-120 0 -180 72t-60 224v560h-240z" />
<glyph unicode="u" vert-adv-y="1024" d="M48 880v48h48q48 0 88 8t80 40h16v-664q0 -112 48 -160t136 -48q96 0 164 48t100 152v504q0 32 -16 52t-56 20h-48v48h48q48 0 88 8t80 40h16v-784q0 -32 20 -48t52 -16h48v-48h-48q-40 0 -80 -12t-88 -36h-16v168q-40 -88 -120 -132t-184 -44q-128 0 -192 72t-64 232 v480q0 32 -16 52t-56 20h-48z" />
<glyph unicode="v" vert-adv-y="1024" d="M72 880v48h344v-48h-32q-48 0 -60 -24q-5 -10 -5 -26q0 -22 9 -54l192 -560h16l192 552q13 31 13 53q0 19 -9 31q-20 28 -68 28h-16v48h288v-48h-16q-48 0 -76 -28t-52 -84l-272 -744h-48l-272 784q-8 32 -32 52t-56 20h-40z" />
<glyph unicode="w" vert-adv-y="1024" d="M8 880v48h288v-48h-32q-32 0 -40 -28q-4 -14 -4 -33t4 -43l120 -520h16l120 480q-8 72 -32 108t-56 36h-24v48h272v-48h-24q-32 0 -40 -28q-4 -14 -4 -33t4 -43l120 -520h8l136 560q8 32 -8 48t-48 16h-40v48h272v-48h-32q-32 0 -56 -24t-40 -80l-192 -752h-48l-144 608 l-152 -608h-48l-184 736q-8 56 -32 88t-48 32h-32z" />
<glyph unicode="x" vert-adv-y="1024" d="M72 32v48h48q32 0 72 24t64 72l208 312l-208 336q-8 16 -32 36t-64 20h-40v48h344v-48h-24q-40 0 -48 -24t8 -56l136 -216l144 216q24 32 20 56t-60 24h-48v48h312v-48h-40q-16 0 -40 -4t-40 -28l-216 -320l224 -368q24 -40 60 -60t52 -20h32v-48h-352v48h48q48 0 52 24 t-12 56l-168 272l-192 -280q-8 -40 4 -56t44 -16h24v-48h-312z" />
<glyph unicode="y" vert-adv-y="1024" d="M88 880v48h336v-48h-32q-32 0 -48 -20t-8 -60l192 -544h16l176 536q7 18 7 32q0 19 -11 32q-20 24 -52 24h-48v48h336v-48h-48q-32 0 -64 -24t-48 -64l-272 -792q-40 -120 -100 -188t-156 -68q-56 0 -88 20t-32 60q0 24 20 48t60 24q32 0 64 -28t48 -28q24 0 40 8t24 32 q24 40 48 100t40 124l-272 704q-8 32 -36 52t-60 20h-32z" />
<glyph unicode="z" vert-adv-y="1024" d="M136 32v40l552 808h-296q-72 0 -120 -52t-80 -180l-48 8l32 272h656v-24l-560 -824h304q104 0 164 64t92 208l48 -8l-56 -312h-688z" />
<glyph unicode="{" vert-adv-y="1024" d="M432 712v48q104 16 140 64t36 160v344q0 176 64 244t200 68v-56q-104 0 -148 -56t-44 -168v-392q0 -128 -56 -176t-120 -48v-16q72 0 124 -56t52 -168v-392q0 -104 44 -164t148 -60v-56q-136 0 -200 68t-64 244v344q0 96 -32 156t-144 68z" />
<glyph unicode="|" vert-adv-y="1024" d="M480 -280v2040h48v-2040h-48z" />
<glyph unicode="}" vert-adv-y="1024" d="M152 -112q112 0 152 60t40 164v392q0 112 52 168t124 56v16q-64 0 -120 48t-56 176v392q0 112 -40 168t-152 56v56q136 0 200 -68t64 -244v-344q0 -112 40 -160t136 -64v-48q-104 -8 -140 -68t-36 -156v-344q0 -176 -64 -244t-200 -68v56z" />
<glyph unicode="~" vert-adv-y="1024" d="M80 1464q40 152 100 208t132 56q32 0 72 -8t80 -48q32 -24 72 -72t72 -80q40 -40 76 -68t68 -28q64 0 104 56t64 152l40 -16q-40 -144 -100 -204t-132 -60q-32 0 -68 12t-76 44q-24 24 -64 68t-80 84l-72 72t-80 32q-64 0 -104 -60t-64 -156z" />
<glyph vert-adv-y="1024" />
<glyph unicode="&#xa0;" />
<glyph unicode="&#xa1;" d="M232 -72v-88t28 -88t72 -40t80 40t40 88t-4 96l-88 808h-40zM232 1016q0 -48 32 -80t80 -32t80 32t32 80t-32 80t-80 32t-80 -32t-32 -80z" />
<glyph unicode="&#xa2;" d="M128 608q0 -144 44 -236t124 -164l-160 -432h64l152 400q80 -48 188 -48t212 92t152 284l-32 16q-56 -112 -100 -164t-96 -80t-124 -24t-144 60l240 664q32 -32 28 -80t28 -76t68 -24t60 28t28 72t-32 96t-140 88l144 400h-72l-136 -384q-48 8 -64 8q-152 0 -272 -104 q-160 -136 -160 -392zM252 588q-12 124 24 216t100 148t116 64t100 0l-240 -648q-88 96 -100 220z" />
<glyph unicode="&#xa3;" d="M64 164q0 -68 32 -100t84 -32t100 36t88 116q144 -112 200 -132t140 -20t168 80t100 240l-32 8q-24 -80 -76 -128t-120 -48t-120 16t-220 80q32 96 36 180t4 244h272v96h-272q0 24 -12 116t-12 208t60 176t128 60t100 -28t32 -88t24 -88t52 -28t56 28t28 80t-64 112 t-176 60t-200 -48t-128 -148t-40 -188t16 -224h-216v-96h216q16 -240 0 -392h-48h-68t-88 -40t-44 -108zM120 164q0 36 24 60t52 28t56 0t52 -20q-16 -80 -52 -112t-64 -32t-48 20t-20 56z" />
<glyph unicode="&#xa4;" horiz-adv-x="2048" d="M192 -16l72 -64l240 240q184 -160 464 -172t552 172l240 -240l72 72l-240 240q168 192 180 480t-180 520l264 264l-72 72l-264 -264q-208 176 -508 176t-500 -176l-256 256l-64 -72l256 -256q-200 -224 -192 -504t184 -496zM360 732q0 228 164 436t488 208t496 -208 t160 -452t-148 -404t-348 -208t-384 8t-300 224t-128 396z" />
<glyph unicode="&#xa5;" d="M56 400h400v-96q0 -128 -4 -156t-24 -44t-116 -16h-24v-48h456v48h-24q-88 0 -108 16t-24 44t-4 156v96h384v72h-384v184h384v72h-352l192 488q48 88 72 116t88 28v48h-304v-48q64 0 80 -20t16 -40t-16 -68l-192 -504l-192 528q-16 32 -16 48t24 32t88 24v48h-384v-48 q56 0 92 -20t76 -116l184 -496h-368v-72h392l8 -40v-144h-400v-72z" />
<glyph unicode="&#xa6;" d="M160 -288v744h88v-744h-88zM160 832v744h88v-744h-88z" />
<glyph unicode="&#xa7;" horiz-adv-x="2048" d="M684 32q4 -56 68 -104t236 -56t252 52t76 164t-220 304q128 -8 208 52t92 156t-40 196t-136 176t-228 200t-148 204t80 120t172 24t100 -44t4 -48t0 -44t36 -40t56 -8t48 32t16 64t-64 84t-172 60t-208 -12t-132 -96t-24 -164t228 -312q-232 -8 -292 -124t48 -276 t272 -320t168 -228t-84 -96t-160 -16t-96 36t-8 52t16 44t-20 40t-52 32t-64 -20t-28 -84zM772 840q20 56 88 80t172 16q136 -104 188 -204t44 -156t-52 -96t-156 -40q-88 96 -196 220t-88 180z" />
<glyph unicode="&#xa8;" horiz-adv-x="2048" d="M656 1332q0 68 56 92t104 -8t40 -88t-48 -80t-96 -4t-56 88zM1184 1336q0 64 56 88t108 -12t44 -88t-56 -76t-100 0t-52 88z" />
<glyph unicode="&#xa9;" d="M0 832q0 128 68 252t192 192t252 68t248 -68t188 -192t68 -252t-64 -252t-188 -192t-256 -68t-252 68t-188 192t-68 252zM48 832q0 -120 60 -228t172 -172t228 -64t228 64t172 172t60 228t-60 232t-172 172t-228 60t-228 -60t-172 -172t-60 -232zM184 828q0 132 80 224 t172 108t152 4t96 -44t44 -16t8 56h24l16 -208h-24q-32 96 -88 136t-132 32t-144 -60t-92 -124t-12 -156t80 -152t172 -68q144 0 224 112l24 -16q-96 -144 -272 -144q-144 0 -236 92t-92 224z" />
<glyph unicode="&#xaa;" d="M-8 1064q0 -48 40 -84t88 -36t104 20t120 68q8 -56 28 -76t44 -20t48 12t96 60v48q-40 -24 -56 -24h-16q-8 8 -8 24v64v216q0 72 -16 108t-64 68t-156 36t-164 -40t-60 -88t16 -64t48 -20t48 20t16 56t12 64t72 32t84 -32t28 -140q-168 -48 -236 -92t-92 -88t-24 -92z M136 1112q0 48 44 96t164 88v-224q-40 -24 -68 -36t-52 -12q-40 0 -64 28t-24 60z" />
<glyph unicode="&#xab;" d="M64 616l384 472h64l-248 -472l248 -472h-64zM512 616l392 472h56l-240 -472l240 -472h-56z" />
<glyph unicode="&#xac;" d="M40 952h904v-328h80v408h-984v-80z" />
<glyph unicode="&#xad;" d="M80 536v152h520v-152h-520z" />
<glyph unicode="&#xae;" d="M0 828q0 -124 64 -248t192 -192t256 -68t252 64t188 180t68 256t-60 268t-184 192t-248 64t-260 -64t-200 -196t-68 -256zM44 836q4 124 64 232t180 168t232 60t228 -60t168 -176t52 -232t-52 -232t-168 -172t-236 -56t-232 56t-176 172t-60 240zM216 520v24q40 0 52 4 t20 24t8 68v384q0 48 -4 68t-16 24t-52 4v32h280q104 0 160 -52t56 -112t-40 -96t-128 -68l160 -208q24 -48 48 -72h40v-24h-144l-208 288h-48v-216q0 -32 20 -40t68 -8v-24h-272zM400 848q88 0 120 12t56 48t24 80t-40 84t-80 40h-80v-264z" />
<glyph unicode="&#xaf;" d="M0 1616h1024v88h-1024v-88z" />
<glyph unicode="&#xb0;" horiz-adv-x="2048" d="M268 1256q-4 -96 56 -160t160 -72t168 44t80 156t-36 172t-116 84t-140 -4t-120 -72t-52 -148zM336 1276q8 60 52 100t108 48t116 -36t52 -128t-52 -132t-136 -36t-116 68t-24 116z" />
<glyph unicode="&#xb1;" horiz-adv-x="2048" d="M320 -40h1400v96h-1400v-96zM320 776h640v-552h96v552h664v96h-664v632h-96v-632h-640v-96z" />
<glyph unicode="&#xb2;" d="M24 816h488l64 152h-48q-16 -32 -44 -44t-116 -12h-184q216 184 276 280t60 164t-64 124t-168 56t-168 -56t-80 -152h48q24 64 64 92t100 28t104 -40t44 -108t-48 -140q-88 -120 -328 -312v-32z" />
<glyph unicode="&#xb3;" d="M48 864q0 -16 28 -40t116 -24q160 0 244 76t84 156t-36 128t-108 80q104 80 104 144t-52 108t-140 44t-144 -40t-88 -112l32 -16q64 88 136 88t104 -32t32 -88t-52 -100t-132 -44v-32q80 0 132 -20t76 -60t24 -88t-40 -88t-84 -40t-100 24t-80 24t-40 -16t-16 -32z" />
<glyph unicode="&#xb4;" d="M240 1200l104 344h224l-296 -344h-32z" />
<glyph unicode="&#xb5;" d="M136 48q0 -40 24 -68t56 -28t56 32t28 72t-12 144t-16 216q32 -48 64 -64t100 -16t144 40t156 136q8 -88 44 -128t116 -40t136 48t64 160h-40q-16 -64 -36 -92t-64 -32t-64 24t-20 156v608h-136v-640q-96 -112 -188 -128t-136 -4t-60 40t-16 156v576h-136v-680 q0 -136 -8 -196t-32 -156t-24 -136z" />
<glyph unicode="&#xb6;" d="M-16 1136q0 112 48 176q56 96 152 148t256 52h488v-56h-128v-1744h-72v1744h-192v-1744h-72v1040q-192 8 -284 52t-144 132t-52 200z" />
<glyph unicode="&#xb7;" horiz-adv-x="2048" d="M784 728q0 -144 120 -200t232 0t120 196t-112 208t-240 4t-120 -208z" />
<glyph unicode="&#xb8;" d="M184 -184v-48h128t124 52t60 116t-32 100t-96 52l56 80h-64l-112 -176h40t48 -20t24 -56t-36 -72t-72 -36t-68 8z" />
<glyph unicode="&#xb9;" d="M136 1448l16 -24q48 16 72 12t28 -24t4 -92v-376q0 -56 -4 -68t-20 -20t-80 -8v-32h328v32q-64 0 -80 8t-20 20t-4 68v592h-32z" />
<glyph unicode="&#xba;" d="M32 1232q0 136 80 220t216 84q120 0 200 -84t80 -204q0 -128 -88 -216t-208 -88t-200 80t-80 208zM168 1304q0 -152 72 -256q40 -56 104 -56q56 0 92 44t36 140q0 160 -72 256q-40 64 -104 64q-48 0 -88 -44t-40 -148z" />
<glyph unicode="&#xbb;" d="M64 144l240 472l-240 472h56l400 -472l-400 -472h-56zM520 144l240 472l-240 472h56l384 -472l-384 -472h-56z" />
<glyph unicode="&#xbc;" d="M56 1448l24 -24q24 16 40 16t20 -4t8 -24t4 -92v-376q0 -56 -12 -76t-60 -20v-32h232v32q-64 0 -72 20t-8 76v592h-24zM160 104l640 1432h72l-648 -1432h-64zM616 296v72l264 464h56v-456h80v-80h-80v-184h-72v184h-248zM680 376h184v320z" />
<glyph unicode="&#xbd;" d="M56 1448l8 -24q32 16 52 12t24 -24t4 -92v-376q0 -64 -12 -80t-68 -16v-32h232v32q-48 0 -56 20t-8 76v592h-32zM136 104l656 1432h64l-656 -1432h-64zM624 112h352l48 152h-40q-8 -32 -28 -44t-92 -12h-136q160 184 208 280t48 164t-48 124t-128 56q-72 0 -116 -56 t-52 -152h32q16 64 44 92t68 28t72 -40t32 -100t-60 -176t-204 -284v-32z" />
<glyph unicode="&#xbe;" d="M64 864q0 -16 20 -40t76 -24q104 0 160 76t56 156t-24 128t-64 80q64 80 64 144t-32 108t-92 44t-96 -40t-60 -112l24 -16q40 88 88 88t68 -32t20 -88t-36 -100t-84 -44v-32q80 0 116 -48t36 -108t-28 -100t-60 -40t-64 24t-52 24t-28 -16t-8 -32zM200 104l616 1432h56 l-608 -1432h-64zM648 296v72l248 464h56v-456h72v-80h-72v-184h-80v184h-224zM704 376h168v320z" />
<glyph unicode="&#xbf;" d="M128 220q0 -100 96 -184t260 -84t256 80t92 164t-36 124t-68 40t-56 -24t-24 -56t32 -76t32 -84t-52 -72t-144 -32t-152 64t-60 172t80 268t96 228t24 180h-40q-8 -104 -36 -172t-128 -176t-136 -184t-36 -176zM376 1120q0 -40 28 -76t72 -36t72 36t28 76t-28 72t-72 32 t-72 -32t-28 -72z" />
<glyph unicode="&#xc0;" d="M8 40v48h24q32 0 56 20t32 68l312 1224l120 40l304 -1264q16 -48 40 -68t56 -20h24v-48h-344v48h32q48 0 60 28t-4 84l-80 352h-360l-72 -304q-16 -72 0 -116t72 -44h24v-48h-296zM296 600h336l-160 664h-8zM296 1760l256 -288h24l-88 288h-192z" />
<glyph unicode="&#xc1;" d="M8 40v48h24q32 0 56 20t32 68l312 1224l120 40l304 -1264q16 -48 40 -68t56 -20h24v-48h-344v48h32q48 0 60 28t-4 84l-80 352h-360l-72 -304q-16 -72 0 -116t72 -44h24v-48h-296zM296 600h336l-160 664h-8zM384 1472l88 288h192l-256 -288h-24z" />
<glyph unicode="&#xc2;" d="M8 40v48h24q32 0 56 20t32 68l312 1224l120 40l304 -1264q16 -48 40 -68t56 -20h24v-48h-344v48h32q48 0 60 28t-4 84l-80 352h-360l-72 -304q-16 -72 0 -116t72 -44h24v-48h-296zM232 1472h40l216 176l232 -176h40l-184 288h-144zM296 600h336l-160 664h-8z" />
<glyph unicode="&#xc3;" d="M8 40v48h24q32 0 56 20t32 68l312 1224l120 40l304 -1264q16 -48 40 -68t56 -20h24v-48h-344v48h32q48 0 60 28t-4 84l-80 352h-360l-72 -304q-16 -72 0 -116t72 -44h24v-48h-296zM248 1552h24q16 72 32 92t36 20t116 -56t152 -56t92 24t56 60t20 116h-16 q-16 -72 -32 -92t-48 -20t-108 40t-112 56t-84 16t-88 -44t-40 -156zM296 600h336l-160 664h-8z" />
<glyph unicode="&#xc4;" d="M8 40v48h24q32 0 56 20t32 68l312 1224l120 40l304 -1264q16 -48 40 -68t56 -20h24v-48h-344v48h32q48 0 60 28t-4 84l-80 352h-360l-72 -304q-16 -72 0 -116t72 -44h24v-48h-296zM240 1652q0 -44 32 -76t76 -32t76 32t32 76t-32 76t-76 32t-76 -32t-32 -76zM296 600h336 l-160 664h-8zM568 1652q0 -44 32 -76t76 -32t76 32t32 76t-32 76t-76 32t-76 -32t-32 -76z" />
<glyph unicode="&#xc5;" d="M8 40v48h24q32 0 56 20t32 68l312 1224l120 40l304 -1264q16 -48 40 -68t56 -20h24v-48h-344v48h32q48 0 60 28t-4 84l-80 352h-360l-72 -304q-16 -72 0 -116t72 -44h24v-48h-296zM296 600h336l-160 664h-8zM360 1608q0 -64 44 -108t108 -44t108 44t44 108t-44 108 t-108 44t-108 -44t-44 -108zM400 1612q0 44 32 76t72 32t76 -28t36 -76t-32 -84t-76 -36t-76 36t-32 80z" />
<glyph unicode="&#xc6;" d="M8 40h240v48q-96 8 -104 24t0 52t56 180l72 240h216v-296q0 -128 -12 -164t-76 -36h-16v-48h568l72 352h-24q-40 -112 -72 -184q-40 -48 -68 -68t-92 -20h-104q-56 0 -60 28t-4 124v448h152q40 0 60 -16t28 -48t8 -136h32v472h-32q0 -136 -20 -168t-76 -24h-152v536h184 q64 0 84 -16t36 -64t24 -144h24l-8 296h-624v-40q64 -8 80 -24t12 -60t-36 -188l-232 -768q-32 -120 -52 -164t-40 -60t-44 -16v-48zM288 648l200 688v-688h-200z" />
<glyph unicode="&#xc7;" d="M72 712q0 -240 104 -408q136 -240 400 -240q136 0 236 80t196 256l-32 24q-96 -160 -168 -220t-184 -60t-204 68t-132 200t-40 320t40 336t128 208t204 60t200 -84t132 -276h24l-24 432h-32q-16 -40 -28 -64t-28 -24t-84 44t-200 44t-252 -92t-188 -252t-68 -352z M448 -240v-48h72q88 0 132 52t44 116t-28 100t-68 52l32 80h-40l-96 -176h36t40 -20t20 -56t-32 -72t-64 -36t-48 8z" />
<glyph unicode="&#xc8;" d="M48 40v48h48q40 0 56 16t16 48v1144q0 32 -16 48t-56 16h-40v48h784l88 -272l-40 -16q-64 120 -136 180t-160 60h-224q-32 0 -52 -16t-20 -48v-496h232q80 0 116 40t36 120v48h48v-472h-48v32q0 88 -36 136t-116 48h-232v-600q0 -32 20 -48t52 -16h208q120 0 204 68 t132 212l40 -16l-88 -312h-816zM232 1760l296 -296h32l-104 296h-224z" />
<glyph unicode="&#xc9;" d="M48 40v48h48q40 0 56 16t16 48v1144q0 32 -16 48t-56 16h-40v48h784l88 -272l-40 -16q-64 120 -136 180t-160 60h-224q-32 0 -52 -16t-20 -48v-496h232q80 0 116 40t36 120v48h48v-472h-48v32q0 88 -36 136t-116 48h-232v-600q0 -32 20 -48t52 -16h208q120 0 204 68 t132 212l40 -16l-88 -312h-816zM416 1464l104 296h224l-296 -296h-32z" />
<glyph unicode="&#xca;" d="M48 40v48h48q40 0 56 16t16 48v1144q0 32 -16 48t-56 16h-40v48h784l88 -272l-40 -16q-64 120 -136 180t-160 60h-224q-32 0 -52 -16t-20 -48v-496h232q80 0 116 40t36 120v48h48v-472h-48v32q0 88 -36 136t-116 48h-232v-600q0 -32 20 -48t52 -16h208q120 0 204 68 t132 212l40 -16l-88 -312h-816zM216 1464h32l216 192l240 -192h40l-176 296h-184z" />
<glyph unicode="&#xcb;" d="M48 40v48h48q40 0 56 16t16 48v1144q0 32 -16 48t-56 16h-40v48h784l88 -272l-40 -16q-64 120 -136 180t-160 60h-224q-32 0 -52 -16t-20 -48v-496h232q80 0 116 40t36 120v48h48v-472h-48v32q0 88 -36 136t-116 48h-232v-600q0 -32 20 -48t52 -16h208q120 0 204 68 t132 212l40 -16l-88 -312h-816zM208 1652q0 -44 32 -76t76 -32t76 32t32 76t-32 76t-76 32t-76 -32t-32 -76zM536 1652q0 -44 32 -76t76 -32t76 32t32 76t-32 76t-76 32t-76 -32t-32 -76z" />
<glyph unicode="&#xcc;" d="M184 40v48h184q40 0 56 16t16 48v1144q0 32 -16 48t-56 16h-184v48h640v-48h-184q-32 0 -52 -16t-20 -48v-1144q0 -32 20 -48t52 -16h184v-48h-640zM256 1760l288 -296h32l-96 296h-224z" />
<glyph unicode="&#xcd;" d="M184 40v48h184q40 0 56 16t16 48v1144q0 32 -16 48t-56 16h-184v48h640v-48h-184q-32 0 -52 -16t-20 -48v-1144q0 -32 20 -48t52 -16h184v-48h-640zM408 1456h32l296 304h-224z" />
<glyph unicode="&#xce;" d="M184 40v48h184q40 0 56 16t16 48v1144q0 32 -16 48t-56 16h-184v48h640v-48h-184q-32 0 -52 -16t-20 -48v-1144q0 -32 20 -48t52 -16h184v-48h-640zM240 1480h32l232 184l224 -184h32l-152 280h-184z" />
<glyph unicode="&#xcf;" d="M184 40v48h184q40 0 56 16t16 48v1144q0 32 -16 48t-56 16h-184v48h640v-48h-184q-32 0 -52 -16t-20 -48v-1144q0 -32 20 -48t52 -16h184v-48h-640zM224 1652q0 -44 32 -76t76 -32t76 32t32 76t-32 76t-76 32t-76 -32t-32 -76zM552 1652q0 -44 32 -76t76 -32t76 32t32 76 t-32 76t-76 32t-76 -32t-32 -76z" />
<glyph unicode="&#xd0;" d="M80 40h400q272 0 396 204t124 492q0 216 -64 376t-168 232t-304 72h-384v-48h40q72 0 96 -40q8 -24 8 -152v-376h-144v-72h144v-448q0 -112 -16 -152q-8 -40 -80 -40h-48v-48zM352 136v592h264v72h-264v520q72 24 144 16q160 0 264 -168t104 -440q0 -280 -108 -444 t-260 -164q-56 -8 -144 16z" />
<glyph unicode="&#xd1;" d="M8 40v48h64q40 0 56 16t16 48v1144q0 32 -16 48t-56 16h-48v48h232l544 -1048h16v936q0 32 -16 48t-56 16h-64v48h320v-48h-64q-32 0 -52 -16t-20 -48v-1256h-48l-608 1192h-16v-1080q0 -32 20 -48t52 -16h64v-48h-320zM240 1552h24q16 72 28 96t40 24t48 -12t96 -60 t132 -48t92 28t60 68t24 112h-24q-16 -64 -36 -88t-52 -24t-104 44t-104 56t-80 12t-96 -44t-48 -164z" />
<glyph unicode="&#xd2;" d="M64 728q0 312 124 504t324 192q208 0 328 -204t120 -492q0 -328 -128 -516t-320 -188q-184 0 -316 192t-132 512zM216 728q0 -344 84 -500t212 -156q136 0 216 148t80 508q0 288 -68 464t-228 176q-136 0 -216 -160t-80 -480zM288 1760l256 -296h24l-88 296h-192z" />
<glyph unicode="&#xd3;" d="M64 728q0 312 124 504t324 192q208 0 328 -204t120 -492q0 -328 -128 -516t-320 -188q-184 0 -316 192t-132 512zM216 728q0 -344 84 -500t212 -156q136 0 216 148t80 508q0 288 -68 464t-228 176q-136 0 -216 -160t-80 -480zM432 1464l88 296h192l-256 -296h-24z" />
<glyph unicode="&#xd4;" d="M64 728q0 312 124 504t324 192q208 0 328 -204t120 -492q0 -328 -128 -516t-320 -188q-184 0 -316 192t-132 512zM216 728q0 -344 84 -500t212 -156q136 0 216 148t80 508q0 288 -68 464t-228 176q-136 0 -216 -160t-80 -480zM240 1448h24l232 208l248 -208h24l-184 312 h-168z" />
<glyph unicode="&#xd5;" d="M64 728q0 312 124 504t324 192q208 0 328 -204t120 -492q0 -328 -128 -516t-320 -188q-184 0 -316 192t-132 512zM216 728q0 -344 84 -500t212 -156q136 0 216 148t80 508q0 288 -68 464t-228 176q-136 0 -216 -160t-80 -480zM248 1544h24q16 72 28 96t40 24t48 -12 t96 -60t132 -48t92 24t60 68t24 124h-24q-16 -72 -36 -96t-52 -24t-104 48t-104 60t-80 12t-96 -48t-48 -168z" />
<glyph unicode="&#xd6;" d="M64 728q0 312 124 504t324 192q208 0 328 -204t120 -492q0 -328 -128 -516t-320 -188q-184 0 -316 192t-132 512zM216 728q0 -344 84 -500t212 -156q136 0 216 148t80 508q0 288 -68 464t-228 176q-136 0 -216 -160t-80 -480zM232 1652q0 -44 32 -76t76 -32t76 32t32 76 t-32 76t-76 32t-76 -32t-32 -76zM592 1652q0 -44 32 -76t76 -32t76 32t32 76t-32 76t-76 32t-76 -32t-32 -76z" />
<glyph unicode="&#xd7;" horiz-adv-x="2048" d="M368 160l64 -64l576 576l568 -576l72 72l-576 568l560 576l-72 64l-552 -576l-576 576l-64 -64l576 -576z" />
<glyph unicode="&#xd8;" d="M64 744q0 288 116 480t340 200q168 0 280 -152l96 168l40 -40l-96 -176q64 -104 88 -216t32 -272q8 -344 -152 -568q-120 -144 -288 -144q-64 -8 -144 28t-144 116l-88 -160l-40 48l88 160q-128 208 -128 528zM216 744q0 -224 40 -416l488 848q-64 192 -248 192 q-40 0 -80 -24q-56 -32 -96 -88q-48 -72 -76 -212t-28 -300zM280 248q32 -56 72 -104q88 -64 144 -72q64 0 120 28t100 96t68 200t24 308q0 128 -8 232q-16 64 -32 168z" />
<glyph unicode="&#xd9;" d="M0 1760zM0 1760zM0 1760zM0 1760zM0 1760zM0 1760zM0 1760zM0 1760zM0 1760zM0 1760zM0 1760zM0 1760zM0 1760zM0 1760zM0 1760zM0 1760zM0 1760zM0 1760zM0 1760zM0 1760zM0 1760zM0 1760zM0 1760zM0 1760zM0 1760zM0 1760zM0 1760zM0 1760zM0 1760zM0 1760zM0 1760z M0 1760zM0 1760zM0 1760zM0 1760zM0 1760zM0 1760zM0 1760zM0 1760zM0 1760zM0 1760zM24 1360v48h352v-48h-40q-32 0 -52 -16t-20 -48v-936q0 -160 68 -216t180 -56q120 0 204 80t84 200v928q0 32 -16 48t-56 16h-48v48h288v-48h-48q-32 0 -52 -16t-20 -48v-928 q0 -160 -108 -252t-244 -92q-144 0 -252 80t-108 256v936q0 32 -16 48t-56 16h-40zM288 1760l256 -296h24l-88 296h-192z" />
<glyph unicode="&#xda;" d="M24 1360v48h352v-48h-40q-32 0 -52 -16t-20 -48v-936q0 -160 68 -216t180 -56q120 0 204 80t84 200v928q0 32 -16 48t-56 16h-48v48h288v-48h-48q-32 0 -52 -16t-20 -48v-928q0 -160 -108 -252t-244 -92q-144 0 -252 80t-108 256v936q0 32 -16 48t-56 16h-40zM448 1464 h24l256 296h-192z" />
<glyph unicode="&#xdb;" d="M24 1360v48h352v-48h-40q-32 0 -52 -16t-20 -48v-936q0 -160 68 -216t180 -56q120 0 204 80t84 200v928q0 32 -16 48t-56 16h-48v48h288v-48h-48q-32 0 -52 -16t-20 -48v-928q0 -160 -108 -252t-244 -92q-144 0 -252 80t-108 256v936q0 32 -16 48t-56 16h-40zM256 1480 h24l224 184l248 -184h24l-184 280h-152z" />
<glyph unicode="&#xdc;" d="M24 1360v48h352v-48h-40q-32 0 -52 -16t-20 -48v-936q0 -160 68 -216t180 -56q120 0 204 80t84 200v928q0 32 -16 48t-56 16h-48v48h288v-48h-48q-32 0 -52 -16t-20 -48v-928q0 -160 -108 -252t-244 -92q-144 0 -252 80t-108 256v936q0 32 -16 48t-56 16h-40zM240 1652 q0 -44 32 -76t76 -32t76 32t32 76t-32 76t-76 32t-76 -32t-32 -76zM600 1652q0 -44 32 -76t76 -32t76 32t32 76t-32 76t-76 32t-76 -32t-32 -76z" />
<glyph unicode="&#xdd;" d="M40 1360v48h352v-48h-48q-48 0 -56 -24t8 -72l216 -592h16l224 592q8 48 -12 72t-76 24h-16v48h312v-48h-24q-40 0 -72 -28t-56 -84l-248 -632v-464q0 -32 20 -48t52 -16h72v-48h-416v48h72q40 0 56 16t16 48v416l-272 704q-16 40 -40 64t-64 24h-16zM440 1464h24 l256 296h-192z" />
<glyph unicode="&#xde;" d="M64 40h504v40h-40q-88 0 -120 40t-32 176v56h112q144 0 204 12t112 40t100 72t80 112t32 152t-48 160t-120 120t-144 60t-224 16h-104v64q0 104 12 140t52 52t88 16h40v40h-504v-40h40q48 0 88 -20t48 -48t8 -140v-880q0 -120 -28 -160t-124 -40h-32v-40zM376 424v600 h128q120 0 168 -12t100 -48t84 -100t32 -148t-44 -156t-124 -104t-256 -32h-88z" />
<glyph unicode="&#xdf;" d="M72 48h264v992q0 176 48 240t148 64t152 -52t60 -192t-56 -200t-192 -60v-48q176 8 260 -112t76 -292t-68 -228t-104 -60t-64 12t-8 40t8 52t-24 52t-60 24t-60 -24t-20 -72t52 -96t168 -48t212 116t96 268t-68 260t-204 148q72 32 132 104t56 192t-96 200t-252 80 q-136 0 -224 -104q-96 -96 -96 -336v-704q0 -88 -12 -120t-36 -44t-88 -12v-40z" />
<glyph unicode="&#xe0;" d="M88 468q0 -180 80 -300t192 -144t208 12t144 132v-32q0 -112 112 -112h56v48q-56 16 -56 120v744h-24q-48 -64 -80 -128q-56 88 -140 112t-184 0t-204 -148t-104 -304zM224 476q0 164 72 264t216 104t200 -124v-456q-64 -136 -172 -156t-176 16t-104 112t-36 240z M308 1280q4 56 44 68t80 -12t136 -296l-40 -8q-224 192 -220 248z" />
<glyph unicode="&#xe1;" d="M88 468q0 -180 80 -300t192 -144t208 12t144 132v-32q0 -112 112 -112h56v48q-56 16 -56 120v744h-24q-48 -64 -80 -128q-56 88 -140 112t-184 0t-204 -148t-104 -304zM224 476q0 164 72 264t216 104t200 -124v-456q-64 -136 -172 -156t-176 16t-104 112t-36 240z M416 1068q0 44 264 252h40q-144 -272 -180 -300t-80 -12t-44 60z" />
<glyph unicode="&#xe2;" d="M80 256q0 -88 80 -156t200 -68t188 28t148 84q16 -56 48 -80t92 -24t100 44t40 156h-40q0 -64 -16 -100t-52 -36t-48 12t-12 76v528q0 112 -80 172t-236 60t-260 -64t-104 -120t20 -76t60 -20t56 32t0 72t40 84t188 44t172 -52t32 -228q-368 -40 -492 -132t-124 -236z M160 1208h24l232 216l272 -216h32l-192 328h-184zM216 296q0 88 104 168t376 112v-376q-80 -56 -152 -84t-156 -28t-128 60t-44 148z" />
<glyph unicode="&#xe3;" d="M80 256q0 144 124 236t492 132v96q0 80 -36 132t-164 52q-136 0 -192 -44t-40 -92q16 -32 0 -64t-56 -32t-60 20t-16 76t104 120t256 64t236 -60t80 -172v-528q0 -64 12 -76t48 -12t52 36t16 100h40q0 -112 -40 -156t-100 -44t-92 24t-48 80q-80 -56 -148 -84t-180 -28 t-200 68t-88 156zM192 1272h24q16 72 28 96t40 24t48 -12t96 -60t132 -48t92 28t60 68t24 112h-24q-16 -64 -36 -88t-52 -24t-104 44t-104 56t-80 12t-96 -44t-48 -164zM216 280q0 -72 44 -132t140 -60q72 0 144 28t152 84v376q-272 -32 -376 -108t-104 -188z" />
<glyph unicode="&#xe4;" d="M80 256q0 144 124 236t492 132v96q0 80 -36 132t-164 52q-136 0 -192 -44t-40 -92q16 -32 0 -64t-56 -32t-60 20t-16 72t104 120t256 68t236 -60t80 -172v-528q0 -64 12 -76t48 -12t52 36t16 100h40q0 -112 -40 -156t-100 -44t-92 24t-48 80q-80 -56 -148 -84t-188 -28 t-200 68t-80 156zM176 1380q0 -44 32 -76t76 -32t76 32t32 76t-32 76t-76 32t-76 -32t-32 -76zM216 280q0 -72 44 -132t140 -60q72 0 144 28t152 84v376q-272 -32 -376 -108t-104 -188zM520 1380q0 -44 32 -76t76 -32t76 32t32 76t-32 76t-76 32t-76 -32t-32 -76z" />
<glyph unicode="&#xe5;" d="M80 256q0 144 124 236t492 132v96q0 80 -36 132t-168 52t-188 -44t-40 -92q16 -32 -4 -68t-60 -36t-60 28t-8 80t108 116t252 64t236 -60t80 -172v-528q0 -64 12 -76t48 -12t52 36t16 100h40q0 -112 -40 -156t-100 -44t-92 24t-48 80q-80 -56 -148 -84t-184 -28t-200 68 t-84 156zM216 280q0 -72 44 -132t140 -60q72 0 144 28t152 84v376q-272 -32 -376 -108t-104 -188zM248 1384q0 -72 48 -120t124 -48t128 52t52 124t-52 120t-124 48t-124 -52t-52 -124zM312 1392q0 48 32 80t76 32t76 -28t36 -80t-28 -88t-80 -36t-80 36t-32 84z" />
<glyph unicode="&#xe6;" d="M8 364q0 -92 52 -156t124 -64t124 24t156 136q40 -72 104 -116t156 -44t180 92t112 252l-24 24q-48 -128 -112 -188t-148 -60t-132 64t-60 148t-12 104v92h488q0 248 -76 344t-172 100t-144 -32t-104 -108q-8 48 -68 92t-148 44t-152 -36t-92 -88t-28 -96t20 -68t60 -16 t52 40t8 88t28 88t80 32t92 -44t44 -100v-184q-112 -16 -224 -80t-148 -128t-36 -156zM132 436q4 84 80 140t196 80q8 -104 20 -184t20 -120q-72 -64 -108 -84t-84 -20t-88 52t-36 136zM528 736q8 184 60 244t116 60q72 0 120 -56t48 -248h-344z" />
<glyph unicode="&#xe7;" d="M72 608q0 -224 116 -344t260 -116t252 88t140 268l-24 16q-56 -128 -140 -200t-220 -60t-204 128t-56 292t96 264t164 88t120 -32t40 -92t28 -92t72 -28t68 32t24 84t-84 124t-240 68t-284 -136t-128 -352zM184 -184v-48q64 0 136 8t120 48t56 120q0 56 -32 92t-96 52 l56 80h-64l-112 -176h40t48 -20t24 -56t-36 -72t-72 -36t-68 8z" />
<glyph unicode="&#xe8;" d="M132 464q-4 216 100 336t216 140t208 -8t168 -120t80 -308h-616q-8 -152 52 -260t188 -120t212 44t116 120h48q-24 -96 -124 -180t-264 -84t-272 112t-112 328zM288 568h464q-8 168 -76 240t-152 68t-156 -76t-80 -232zM320 1288q0 56 52 68t88 -24t124 -284l-40 -8 q-224 192 -224 248z" />
<glyph unicode="&#xe9;" d="M132 456q-4 216 100 336t216 140t208 -8t168 -120t80 -308h-616q-8 -152 52 -260t188 -120t212 44t116 120h48q-24 -96 -124 -180t-264 -84t-272 112t-112 328zM288 560h464q-8 168 -76 240t-152 68t-156 -76t-80 -232zM448 1100q0 44 264 252h40q-144 -272 -180 -300 t-80 -12t-44 60z" />
<glyph unicode="&#xea;" d="M132 456q-4 216 100 336t216 140t208 -8t168 -120t80 -308h-616q-8 -152 52 -260t188 -120t212 44t116 120h48q-24 -96 -124 -180t-264 -84t-272 112t-112 328zM192 1032q216 328 252 336t60 8t64 -16t248 -328h-40l-272 208l-272 -208h-40zM288 560h464q-8 168 -76 240 t-152 68t-156 -76t-80 -232z" />
<glyph unicode="&#xeb;" d="M120 488q0 -224 116 -344t280 -120t248 84t108 172l-40 16q-32 -88 -104 -148t-192 -60t-204 92t-84 308h648q0 248 -108 360t-268 104q-168 0 -284 -132t-116 -332zM200 1300q0 -44 32 -76t76 -32t76 32t32 76t-32 76t-76 32t-76 -32t-32 -76zM248 536q0 168 76 264 t196 96q112 0 180 -92t60 -268h-512zM552 1300q0 -44 32 -76t76 -32t76 32t32 76t-32 76t-76 32t-76 -32t-32 -76z" />
<glyph unicode="&#xec;" d="M200 1288q0 56 52 68t88 -24t124 -284l-40 -8q-224 192 -224 248zM216 32v40q144 0 160 64v648q0 72 -120 64v32q128 24 192 64h48v-800q16 -72 160 -72v-40h-440z" />
<glyph unicode="&#xed;" d="M216 32v40q144 0 160 64v648q0 72 -120 64v32q128 24 192 64h48v-800q16 -72 160 -72v-40h-440zM320 1100q0 44 264 252h40q-144 -272 -180 -300t-80 -12t-44 60z" />
<glyph unicode="&#xee;" d="M160 1176h24l248 216l256 -216h32l-192 328h-184zM208 40v48h168q40 0 56 16t16 48v664q0 32 -16 52t-56 20h-168v48h80q72 0 136 12t120 44h16v-840q0 -32 20 -48t52 -16h168v-48h-592z" />
<glyph unicode="&#xef;" d="M168 1388q0 -44 32 -76t76 -32t76 32t32 76t-32 76t-76 32t-76 -32t-32 -76zM208 40v48h168q40 0 56 16t16 48v664q0 32 -16 52t-56 20h-168v48h80q72 0 136 12t120 44h16v-840q0 -32 20 -48t52 -16h168v-48h-592zM520 1396q0 -44 32 -76t76 -32t76 32t32 76t-32 76 t-76 32t-76 -32t-32 -76z" />
<glyph unicode="&#xf0;" d="M72 480q0 -192 116 -304t272 -128t268 48t164 180t44 280t-92 324t-276 336l224 120l-32 56l-248 -128q-104 80 -248 144l-24 -32q112 -64 208 -152l-256 -136l32 -48l264 128q120 -120 216 -296q-88 56 -152 64t-168 -12t-208 -132t-104 -312zM200 536q16 184 100 272 t180 88q160 0 240 -128t80 -352q-8 -160 -84 -232t-172 -72q-104 0 -192 52t-120 144t-32 228z" />
<glyph unicode="&#xf1;" d="M56 40v48h40q40 0 56 16t16 48v688q0 24 -8 36t-32 12h-64v48h56q40 0 76 8t68 32h16v-184q72 80 144 120t180 40t172 -72t64 -216v-512q0 -32 20 -48t52 -16h40v-48h-336v48h40q40 0 56 16t16 48v536q0 96 -40 148t-116 52t-152 -48t-140 -136v-552q0 -32 20 -48t52 -16 h40v-48h-336zM200 1288h24q16 72 28 96t48 24t52 -8t88 -56t128 -52t92 20t60 68t24 124h-24q-16 -72 -36 -96t-52 -24t-104 48t-104 60t-80 12t-96 -48t-48 -168z" />
<glyph unicode="&#xf2;" d="M104 480q8 176 96 288t204 148t232 0t200 -152t88 -288t-100 -316t-304 -144t-312 144t-104 320zM244 476q4 -164 80 -272t144 -120t124 8t124 120t68 264t-76 280t-188 112t-196 -116t-80 -276zM304 1280q0 56 48 72t88 -24t128 -288l-40 -8q-224 192 -224 248z" />
<glyph unicode="&#xf3;" d="M96 488q8 176 100 288t208 148t232 4t200 -152t88 -292t-108 -316t-304 -144t-308 144t-108 320zM244 484q4 -164 80 -272t144 -120t124 8t124 120t68 264t-76 280t-188 112t-196 -116t-80 -276zM448 1092q0 44 264 252h40q-144 -272 -180 -300t-80 -12t-44 60z" />
<glyph unicode="&#xf4;" d="M88 488q0 -192 116 -328t300 -136q176 0 296 132t120 332q0 176 -112 320t-304 144q-184 0 -300 -144t-116 -320zM216 480q0 208 88 316t200 108q120 0 204 -108t84 -316q0 -192 -76 -300t-212 -108q-120 0 -204 100t-84 308zM216 1176h24l240 216l264 -216h32l-192 328 h-184z" />
<glyph unicode="&#xf5;" d="M88 488q0 -192 116 -328t300 -136q176 0 296 132t120 332q0 176 -112 320t-304 144q-184 0 -300 -144t-116 -320zM216 480q0 208 88 316t200 108q120 0 204 -108t84 -316q0 -192 -76 -300t-212 -108q-120 0 -204 100t-84 308zM224 1272h24q16 72 28 96t40 24t48 -12 t96 -60t132 -48t92 24t60 68t24 124h-24q-16 -72 -36 -96t-52 -24t-104 48t-104 60t-80 12t-96 -48t-48 -168z" />
<glyph unicode="&#xf6;" d="M88 488q0 -192 116 -328t300 -136q176 0 296 132t120 332q0 192 -116 332t-300 132q-184 0 -300 -144t-116 -320zM192 1396q0 -44 32 -76t76 -32t76 32t32 76t-32 76t-76 32t-76 -32t-32 -76zM216 480q0 208 88 316t200 108q120 0 204 -108t84 -316q0 -192 -76 -300 t-212 -108q-120 0 -204 100t-84 308zM544 1396q0 -44 32 -76t76 -32t76 32t32 76t-32 76t-76 32t-76 -32t-32 -76z" />
<glyph unicode="&#xf7;" horiz-adv-x="2048" d="M288 680h1464v96h-1464v-96zM860 236q4 84 80 120t144 -8t64 -128t-84 -124t-144 8t-60 132zM860 1244q4 84 80 120t144 -8t64 -128t-84 -124t-144 8t-60 132z" />
<glyph unicode="&#xf8;" d="M56 24l40 -40l128 152q72 -64 140 -88t172 -24t196 68t144 180t44 260t-96 260l136 152l-40 48l-136 -152q-64 64 -136 92t-172 20t-188 -64t-144 -164t-56 -220t24 -184t72 -144zM216 552q16 152 88 240t156 104t148 -12t112 -116l-472 -520q-48 152 -32 304zM280 192 l472 520q48 -112 40 -272t-68 -248t-140 -108t-156 0t-148 108z" />
<glyph unicode="&#xf9;" d="M48 928q152 0 152 -104v-592q0 -120 72 -164t192 -32t256 156v-80q0 -80 112 -80h112v64q-72 0 -92 24t-20 96v760h-248v-48q136 0 136 -96v-568q-128 -112 -236 -116t-140 28t-32 120v680h-264v-48zM304 1288q0 56 48 72t88 -24t128 -288l-40 -8q-224 192 -224 248z" />
<glyph unicode="&#xfa;" d="M48 928q152 0 152 -104v-592q0 -120 72 -164t192 -32t256 156v-80q0 -80 112 -80h112v64q-72 0 -92 24t-20 96v760h-248v-48q136 0 136 -96v-568q-128 -112 -236 -116t-140 28t-32 120v680h-264v-48zM440 1108q0 44 264 252h40q-144 -272 -180 -300t-80 -12t-44 60z" />
<glyph unicode="&#xfb;" d="M40 888v48h48q48 0 88 8t80 40h16v-664q0 -112 48 -160t136 -48q96 0 164 48t100 152v504q0 32 -16 52t-56 20h-48v48h48q48 0 88 8t80 40h16v-784q0 -32 20 -48t52 -16h48v-48h-48q-40 0 -80 -12t-88 -36h-16v168q-40 -88 -120 -132t-184 -44q-128 0 -192 72t-64 232 v480q0 32 -16 52t-56 20h-48zM192 1176h24l240 216l264 -216h32l-192 328h-184z" />
<glyph unicode="&#xfc;" d="M48 928q152 0 152 -104v-592q0 -120 72 -164t192 -32t256 156v-80q0 -80 112 -80h112v64q-72 0 -92 24t-20 96v760h-248v-48q136 0 136 -96v-568q-128 -112 -236 -116t-140 28t-32 120v680h-264v-48zM192 1120q0 40 20 64t52 32t64 0t48 -32t16 -64t-36 -64t-68 -24 t-64 24t-32 64zM600 1120q0 40 20 64t48 32t64 0t52 -32t16 -64t-36 -64t-68 -24t-64 24t-32 64z" />
<glyph unicode="&#xfd;" d="M80 888h32q32 0 60 -20t36 -52l272 -704q-16 -64 -44 -132t-48 -96t-48 -40t-52 28t-68 40t-64 -28t-16 -60t32 -52t100 -20t132 56t108 200l272 792q16 40 48 64t64 24h48v48h-336v-48h48q32 0 52 -24t4 -64l-176 -536h-16l-192 544q-8 40 8 60t48 20h32v48h-336v-48z M416 1160l104 344h224l-296 -344h-32z" />
<glyph unicode="&#xfe;" d="M32 -248v-32h440v32q-72 0 -100 16t-40 40t-12 120v280q48 -48 112 -72t180 -4t220 148t112 368q0 176 -52 264t-116 128t-156 36t-168 -56t-132 -140v696h-40l-240 -112l8 -32q40 16 68 16t44 -12t24 -36t8 -120v-1344q0 -104 -12 -128t-40 -40t-84 -16h-24zM320 480 v344q80 88 124 112t128 24t160 -92t72 -296t-76 -296t-176 -92t-156 44t-68 108q-8 32 -8 144z" />
<glyph unicode="&#xff;" d="M80 888h32q32 0 60 -20t36 -52l272 -704q-16 -64 -40 -124t-40 -92t-32 -40t-36 -8t-52 28t-68 28t-56 -24t-20 -56t32 -52t108 -20t136 68t100 188l272 792q16 40 48 64t64 24h48v48h-336v-48h48q32 0 52 -24t4 -64l-176 -536h-16l-192 544q-8 40 8 60t48 20h32v48h-336 v-48zM232 1396q0 -44 32 -76t76 -32t76 32t32 76t-32 76t-76 32t-76 -32t-32 -76zM584 1396q0 -44 32 -76t76 -32t76 32t32 76t-32 76t-76 32t-76 -32t-32 -76z" />
<glyph unicode="&#x152;" d="M88 720q0 -192 44 -352t124 -240t248 -88h456l56 344h-32q-24 -136 -60 -184t-60 -64t-80 -16h-136v592h96q64 0 88 -36t24 -164h32v480h-32q0 -104 -20 -152t-92 -48h-96v536h144q56 0 76 -24t32 -52t28 -140h32l-16 288h-504q-184 -8 -272 -216q-80 -200 -80 -464z M216 736q0 176 24 324t76 212t116 68t84 -20t24 -60t4 -180v-792q0 -128 -28 -156t-92 -20t-112 80t-72 212t-24 332z" />
<glyph unicode="&#x153;" d="M88 604q0 220 84 348t188 136t156 -36t84 -116q40 88 84 124t132 36t148 -96t52 -328h-376q0 -96 24 -200t72 -152t100 -44t96 60t60 176l24 -16q-16 -192 -76 -280t-140 -88t-128 48t-72 112q-40 -80 -96 -120t-148 -36t-180 128t-88 344zM220 636q-4 -204 48 -320 t124 -116t108 72t36 284t-36 332t-88 132t-100 -12t-68 -96t-24 -276zM640 736h264q0 112 -16 176t-40 92t-80 24t-88 -60t-40 -232z" />
<glyph unicode="&#x178;" d="M40 1360v48h352v-48h-48q-48 0 -56 -24t8 -72l216 -592h16l224 592q8 48 -12 72t-76 24h-16v48h312v-48h-24q-40 0 -72 -28t-56 -84l-248 -632v-464q0 -32 20 -48t52 -16h72v-48h-416v48h72q40 0 56 16t16 48v416l-272 704q-16 40 -40 64t-64 24h-16zM240 1652 q0 -44 32 -76t76 -32t76 32t32 76t-32 76t-76 32t-76 -32t-32 -76zM600 1652q0 -44 32 -76t76 -32t76 32t32 76t-32 76t-76 32t-76 -32t-32 -76z" />
<glyph unicode="&#x2c6;" d="M64 1208l184 328h184l192 -328h-32l-264 216l-240 -216h-24z" />
<glyph unicode="&#x2dc;" d="M24 1256q0 136 56 192t128 56q40 0 80 -16t124 -68t124 -52q32 0 56 28t40 108h32q0 -88 -28 -136t-72 -80t-92 -32q-80 0 -200 72q-56 40 -80 52t-48 12q-40 0 -64 -40q-8 -16 -24 -96h-32z" />
<glyph unicode="&#x2000;" horiz-adv-x="880" vert-adv-y="0" />
<glyph unicode="&#x2001;" horiz-adv-x="1760" vert-adv-y="0" />
<glyph unicode="&#x2002;" horiz-adv-x="880" vert-adv-y="0" />
<glyph unicode="&#x2003;" horiz-adv-x="1760" vert-adv-y="0" />
<glyph unicode="&#x2004;" horiz-adv-x="586" vert-adv-y="0" />
<glyph unicode="&#x2005;" horiz-adv-x="440" vert-adv-y="0" />
<glyph unicode="&#x2006;" horiz-adv-x="293" vert-adv-y="0" />
<glyph unicode="&#x2007;" horiz-adv-x="293" vert-adv-y="0" />
<glyph unicode="&#x2008;" horiz-adv-x="220" vert-adv-y="0" />
<glyph unicode="&#x2009;" horiz-adv-x="352" vert-adv-y="0" />
<glyph unicode="&#x200a;" horiz-adv-x="97" vert-adv-y="0" />
<glyph unicode="&#x2010;" vert-adv-y="1024" d="M64 712v72h888v-72h-888z" />
<glyph unicode="&#x2011;" vert-adv-y="1024" d="M64 712v72h888v-72h-888z" />
<glyph unicode="&#x2012;" vert-adv-y="1024" d="M64 712v72h888v-72h-888z" />
<glyph unicode="&#x2013;" horiz-adv-x="2048" d="M648 688v96h768v-96h-768z" />
<glyph unicode="&#x2014;" horiz-adv-x="2048" d="M0 696h2040v80h-2040v-80z" />
<glyph unicode="&#x2018;" horiz-adv-x="2048" d="M1404 1032q28 -64 96 -84t120 20t60 96t-28 104t-132 40q32 96 72 152t116 124t56 76t-116 -64t-156 -148t-88 -164t0 -152z" />
<glyph unicode="&#x2019;" horiz-adv-x="2048" d="M292 936q12 -8 104 68t148 148t84 152t4 144t-96 84t-116 -16t-48 -96t28 -104t120 -44q-40 -80 -72 -132t-100 -124t-56 -80z" />
<glyph unicode="&#x201a;" vert-adv-y="1024" d="M112 -144v-40q152 48 224 136t72 188t-52 156t-112 56t-96 -32t-36 -84t28 -80t64 -28t68 12t48 -8t12 -64t-60 -112t-160 -100z" />
<glyph unicode="&#x201c;" horiz-adv-x="2048" d="M972 1032q28 -64 96 -84t120 20t60 96t-28 104t-132 40q32 96 72 152t116 124t56 76t-116 -64t-156 -148t-88 -164t0 -152zM1404 1032q28 -64 96 -84t120 20t60 96t-28 104t-132 40q32 96 72 152t116 124t56 76t-116 -64t-156 -148t-88 -164t0 -152z" />
<glyph unicode="&#x201d;" horiz-adv-x="2048" d="M288 936q16 -8 108 68t148 148t84 152t4 144t-96 84t-116 -16t-48 -96t28 -104t120 -44q-40 -80 -72 -132t-104 -124t-56 -80zM704 936q16 -8 108 68t148 148t84 152t4 144t-96 84t-116 -16t-48 -96t28 -104t120 -44q-40 -80 -72 -132t-104 -124t-56 -80z" />
<glyph unicode="&#x201e;" d="M64 236q0 -44 32 -76t64 -32t52 8t44 -4t24 -56t-32 -92t-136 -104v-40q128 32 196 120t68 184t-56 152t-116 56t-100 -36t-40 -80zM544 240q0 -48 32 -80t60 -32t52 8t48 -4t24 -60t-40 -96t-128 -96v-40q128 40 192 128t64 180t-52 148t-112 56t-100 -32t-40 -80z" />
<glyph unicode="&#x2022;" d="M256 816q0 104 72 176t176 72t180 -72t76 -176t-76 -176t-180 -72t-176 72t-72 176z" />
<glyph unicode="&#x2026;" horiz-adv-x="2048" d="M208 728q0 -88 76 -128t152 -4t84 124t-72 140t-160 4t-80 -136zM864 728q0 -88 76 -128t152 -4t84 124t-72 140t-160 4t-80 -136zM1520 728q0 -88 76 -128t152 -4t84 124t-72 140t-160 4t-80 -136z" />
<glyph unicode="&#x202f;" horiz-adv-x="352" vert-adv-y="0" />
<glyph unicode="&#x2039;" d="M120 616l384 472h56l-240 -472l240 -472h-56z" />
<glyph unicode="&#x203a;" d="M112 144l248 472l-248 472h64l392 -472l-392 -472h-64z" />
<glyph unicode="&#x205f;" horiz-adv-x="440" vert-adv-y="0" />
<glyph unicode="&#x20ac;" d="M0 616h112q24 -232 112 -376q112 -184 336 -200q176 -8 280 64t176 208l-32 24q-80 -112 -156 -164t-212 -52q-168 0 -256 152q-80 144 -88 344h552l24 80h-576v72h600l24 80h-624q8 200 96 336q120 160 280 160q272 0 296 -312h40v288q-168 88 -336 88 q-208 -16 -356 -172t-164 -388h-104l-24 -80h112v-72h-88z" />
<glyph unicode="&#x2122;" d="M0 1320h24q16 72 40 104t56 32h40v-576q0 -80 -8 -104t-48 -32v-32h200v32q-32 8 -44 28t-12 108v576h32q48 0 64 -32t24 -104h32l-8 200h-384zM440 712h168v32q-48 0 -56 12t-12 32t-4 92v480l160 -648h16l160 656v-488q0 -64 -4 -88t-16 -32t-36 -16v-32h208v32 q-40 8 -48 28t-8 108v464v92t12 32t44 12v40h-160l-136 -568l-136 568h-144v-40q24 0 36 -8t12 -28v-100v-464v-92t-12 -32t-44 -12v-32z" />
<glyph unicode="&#x25fc;" horiz-adv-x="920" vert-adv-y="1840" d="M0 0v920h920v-920h-920z" />
</font>
</defs>
</svg>
